<svg width="273" height="178" xmlns="http://www.w3.org/2000/svg" xmlns:xlink="http://www.w3.org/1999/xlink"><svg data-name="Layer 1" viewBox="-1 -1 144.4 61.5" width="144.4" height="61.5" xmlns="http://www.w3.org/2000/svg"><path d="M37.42 57.06l-5.93-3-4.86-5.85-6.08-4.71-.55 5.66-.46 9.05-5.47.22-6.31-5.7L8 41.79l.91-9 .23-9.42-.23-7.45L9.15 3l8-1 3.35 5.85 1.29 11.86 4.41-5.78 5.47-8.58 4.86-.61 2.21 3.11 2.66 3.8-2.66 5.25-4.71 7.83-5.93 8.05L34.46 39l5.32 7.29 2.51 7.83zm1.14-9.88l-4.33-5.85-4.71-5.09-4.11-3.72 4.79-5L35.37 20l4.26-7.44-3.81-1.14-4.1 6.68-5.47 7.22-5.17 3.35-.91-9L19 9l-3.88.76L15 20.35l-.15 12-.38 11.71-.31 12.61h4.11l.45-10.41 1-11.17C25 36.16 37.88 55 37.88 55.24a12.94 12.94 0 003-1.67zm40.66 11.94L71 53.64l-1.58-13.83-3.42-.23A134.58 134.58 0 0157.94 57c-.31.68-.53 1.67-.76 2.35L50 57l-5.47-6.92a176.53 176.53 0 008.67-22c1-3.19 1.59-6.69 2.73-9.88 1.75-4.64 6.31-13.22 8.9-17.78l6.38 3.8c1.29 2.5 3 5.32 4.1 7.9L77 18c1 3.57 2 7.14 3.11 10.71C83 38.6 85.53 46.42 87 56.61zm-1-31.32c-1.06-3.49-2-7.52-3.34-10.87-1.22-3-2.51-6.61-4-9.5l-1.83 3.35-2.43 5.55-2.37 5.77c-1.9 4.49-2.81 9.35-4.41 13.91-2.28 6.61-4.94 13.23-7.53 19.76l4 1.83c2.43-5.1 7.14-13.53 7.9-19.16l4.79-.53c1.75-.76 4-.15 5.85-.07.84 3.42 1.29 4.33 2.13 7.44.38 1.45.3 3.12.68 4.56.54 2.21 1.37 4.41 2.06 6.54l5.24-1.52c-1.33-9.12-4.07-18.24-6.73-27.06zm-4.48 5.32l-4.41.76-2.28-1.14a48.64 48.64 0 011.52-10.49 10.6 10.6 0 015 1.22c-.08 1.22-.31 2.51-.31 3.65 0 .15.84 3.49.91 3.8zm42.72 24.71C108 57.06 96.55 50 96.55 50s-4.94-6.39-6.84-9.35l6.68-4.94c6.16 2 12.54 6.46 18.32 9.19a16.41 16.41 0 005.4-.3l3-3C114.25 38.44 95 29.63 95 19.21c0-7.9 12.39-19 20.07-19 .6 0 9 2.28 10.1 2.51l5.93 7.07-2.13 8.59a53.54 53.54 0 00-16.56-3.8c-2.13 1.14-3.81 2.43-3.81 5.09 0 12.62 26.76 10.79 26.76 27.36-.05 8.89-10.54 11.55-18.9 10.8zm-9-33.37a11.15 11.15 0 01-.23-6.84c.08-4.49 4.56-4.56 4.56-4.56a67 67 0 0116 3.19l1.37-5.17c-1-.3-8.81-3.11-11.32-3.49-4-.61-11.86 2.2-13.08 4.63 0 0-3.19 3.8-3.26 6.69 0 18.47 17.71 14.29 26.29 25.39 0 0 .31 3.87-1.14 5.7-1.14 1.21-5.16 1.9-5.47 1.9a30.18 30.18 0 01-19.46-7.6l-3.64 4.18c6.46 6.08 15.27 8.2 23.63 8.2 3.35 0 9-2.66 11.86-7.06-.01-16.95-17.26-14.62-26.08-25.16z" fill="none" stroke="#0e051d" stroke-miterlimit="10"/></svg><svg data-name="Layer 1" width="66" height="66" viewBox="-1 -1 66 66" x="206.4" xmlns="http://www.w3.org/2000/svg"><path d="M.72.08A.67.67 0 000 .8v46.48a.72.72 0 00.72.72H48l16 16V.72a.67.67 0 00-.72-.72H.8z" fill="#2f5572"/></svg><svg data-name="Layer 1" width="23.23" height="44.01" viewBox="-1 -1 23.23 44.01" x="144.4" y="66" xmlns="http://www.w3.org/2000/svg"><path d="M21.23.31V7H17.4a3.55 3.55 0 00-2.85.91 4.26 4.26 0 00-.74 2.72v4.77H21l-1 7.47h-6.19V42H6.27V22.85H0v-7.47h6.27V9.85q0-4.69 2.55-7.28A9 9 0 0115.63 0a39.57 39.57 0 015.6.31z" fill="#fff"/></svg><svg data-name="Layer 1" width="58" height="66" viewBox="-1 -1 58 66" y="111.5" xmlns="http://www.w3.org/2000/svg"><path d="M16 0C24 16 0 24 0 40s16 24 16 24C8.16 48.16 32 40 32 24S16 0 16 0zm24 24c8 16-16 24-16 40h24c3.2 0 8-4 8-16 0-16-16-24-16-24z" fill="#d4953d"/></svg><svg data-name="Layer 1" width="66" height="66" viewBox="-1 -1 66 66" x="58" y="111.5" xmlns="http://www.w3.org/2000/svg"><path d="M32 0a32 32 0 1032 32A32 32 0 0032 0zm0 8a23.75 23.75 0 017.52 1.52c-1.68 1.6-3.6 3-3.28 4.48s5.52 1 5.52 4c0 2.16-3.36 2.8-1 5.28 2.8 2.8-5.12 7.84-5.28 11.52-.24 6.64 6.72 7.76 12.24 7.76 3.36 0 4.24 1.6 4 3.52a24.07 24.07 0 01-19.76 10 22.94 22.94 0 01-8.48-1.76c1.76-3.52-2.24-10.48-6-12.72-1.84-1.84-5.76-1.12-8-2a23.49 23.49 0 01-1.52-6.72 1.42 1.42 0 011.28-.72c1.52 0 3.6 3 4.72 2.72 1.4-.32-5.96-10.48-2.52-12.48 1.6-1 4.8 3.12 3.76-1.28-1-4.08 2.88-2.24 5.28-3.28 2.08-.88 3.6-3.28 1-4.72a8.55 8.55 0 01-1.76-1.52A23.75 23.75 0 0132 8.08V8zm18.48 8.72A26.46 26.46 0 0154 22.48v.24a11.78 11.78 0 01-1.76 1.76C50 26.72 49.68 22.8 48.72 22c-1-1-4.8.16-5.28-1-.56-1.48 4-3.4 7.04-4.28z" fill="#d4953f"/></svg><svg data-name="Layer 1" viewBox="-1 -1 44 42.93" width="44" height="42.93" x="66" y="61.5" xmlns="http://www.w3.org/2000/svg"><path d="M27.18 40.94a11.07 11.07 0 01-.68-2.13 21.22 21.22 0 010-3.19 7.87 7.87 0 00-3.62-7.28c3.59-.66 6.91-1.43 9-4.66l7.86.48c-1-1.23-2.33-.9-3.51-1.14s-2.48-.23-3.72-.54c2.46-1.15 5.12-.15 7.9-.8-1.31-1-2.61-.6-3.79-.7s-2.4 0-3.29 0c-.61-2-1.21-3.65-1.63-5.38a5.78 5.78 0 01.12-2.22c.22-1.44.4-2.86-.6-4.12-2-.29-3.54.81-5.13 1.74a13.81 13.81 0 00-10.06 0c-1.59-.88-3.1-2-5.14-1.79-1.5 1.85-.52 3.88-.39 5.14L8.71 21c-2.1.19-4.44-.22-6.7.57 2.38 1 5.05-.29 7.9 1-2.87.48-5.35.22-7.61 1.1v.5l7.7-.49c2 3.23 5.36 4 8.84 4.6a5.86 5.86 0 01-5.54 2.8 4.74 4.74 0 01-3.6-1.61 5.15 5.15 0 00-3-2.08c.8 1.56 1.57 3 2.25 4.41a3.25 3.25 0 003.07 2h3.13c.71 3.19.47 5.66-.63 7C6.05 39.03-.67 29.12.05 19.36A21.2 21.2 0 0119.75.03a21.19 21.19 0 0122 18 21.13 21.13 0 01-14.57 22.91z" fill="#fff"/></svg><svg data-name="Layer 1" width="66" height="50" viewBox="-1 -1 66 50" y="61.5" xmlns="http://www.w3.org/2000/svg"><path d="M0 0v8l32 16L64 8V0H0zm0 16v32h64V16L32 32z" fill="#2f5572"/></svg><svg data-name="Layer 1" width="66" height="66" viewBox="-1 -1 66 66" x="206.4" y="66" xmlns="http://www.w3.org/2000/svg"><path d="M35.96 0a20.42 20.42 0 00-20 16 16 16 0 00-16 16 15.4 15.4 0 004.27 10.72A11.88 11.88 0 0111.96 40a10.51 10.51 0 014.47 1 12 12 0 0111.53-9 12.06 12.06 0 0111.51 9 11.84 11.84 0 014.49-1 11.94 11.94 0 0111 7.52 12.07 12.07 0 009-11.52c0-5.2-3.36-10.32-8-12v-4a20 20 0 00-20-20zm-9.27 40a4 4 0 00-2.73 4v16a4 4 0 108 0V44a4 4 0 00-4.71-4h-.56zm-16 8a4 4 0 00-2.73 4v8a4 4 0 108 0v-8a4 4 0 00-4.71-4h-.54zm32 0a4 4 0 00-2.73 4v8a4 4 0 108 0v-8a4 4 0 00-4.71-4h-.58z" fill="#d4953f"/></svg><svg data-name="Layer 1" width="66" height="66" viewBox="-1 -1 66 66" x="124" y="111.5" xmlns="http://www.w3.org/2000/svg"><path d="M32 0l-8 24H0l20 16-8 24 20-16 20 16-8-24 20-16H40z" fill="#d4953f"/></svg><svg data-name="Layer 1" width="53.78" height="44.06" viewBox="-1 -1 53.78 44.06" x="206.4" y="132" xmlns="http://www.w3.org/2000/svg"><path d="M51.78 5a22.23 22.23 0 01-5.32 5.52v1.38a30.15 30.15 0 01-1.25 8.53 30.81 30.81 0 01-3.76 8.13 32.1 32.1 0 01-6.06 6.92 27 27 0 01-8.48 4.8 31 31 0 01-10.62 1.8A29.47 29.47 0 010 37.29a22.71 22.71 0 002.56.13 20.78 20.78 0 0013.17-4.53 10.63 10.63 0 01-9.92-7.36 13.45 13.45 0 002 .16 11 11 0 002.79-.36 10.44 10.44 0 01-6.09-3.67 10.25 10.25 0 01-2.41-6.75v-.13a10.52 10.52 0 004.8 1.34 10.6 10.6 0 01-3.45-3.78 10.34 10.34 0 01-1.28-5.07 10.4 10.4 0 011.45-5.33 30.08 30.08 0 009.71 7.83A29.57 29.57 0 0025.53 13a11.79 11.79 0 01-.26-2.43 10.23 10.23 0 013-7.48 10.64 10.64 0 0115 0l.21.22A20.81 20.81 0 0050.33.8a10.3 10.3 0 01-4.67 5.85A21.14 21.14 0 0051.78 5z" fill="#fff"/></svg><svg data-name="Layer 1" width="62" height="66" viewBox="-1 -1 62 66" x="144.4" xmlns="http://www.w3.org/2000/svg"><path d="M29.88 0A55.39 55.39 0 000 8.72l4.22 6.48a47.32 47.32 0 0125.66-7.28 47.31 47.31 0 0125.9 7.28L60 8.72A55.53 55.53 0 0029.88 0zm0 24a31.08 31.08 0 00-17 5l4.22 6.72A23.09 23.09 0 0129.8 32a24.17 24.17 0 0113 3.76L47 29a32.37 32.37 0 00-17.2-5h.07zm0 24a8 8 0 108 8 8 8 0 00-8-8z" fill="#d4953e"/></svg><svg data-name="Layer 1" width="36.75" height="44" viewBox="-1 -1 36.75 44" x="167.63" y="66" xmlns="http://www.w3.org/2000/svg"><path d="M22.13 29.15v5q0 1.57-.91 1.57a1.5 1.5 0 01-1.06-.52v-7.11a1.5 1.5 0 011.06-.54q.91 0 .91 1.6zm7.92 0v1.08h-2.1v-1.06q0-1.59 1.06-1.59t1 1.59zM7.42 24h2.5v-2.14h-7.3v2.2h2.46V37.4h2.34V24zm6.75 13.4h2.09V25.82h-2.09v8.86a1.86 1.86 0 01-1.31 1 .48.48 0 01-.49-.47 6.52 6.52 0 010-.82v-8.57h-2.14V35a5.79 5.79 0 00.19 1.71 1.26 1.26 0 001.36.87 3.43 3.43 0 002.39-1.43v1.25zm10.05-3.47v-4.6A8.33 8.33 0 0024 27a1.63 1.63 0 00-1.67-1.31A2.82 2.82 0 0020.16 27v-5.1h-2.08v15.5h2.09v-1.13a2.91 2.91 0 002.18 1.31A1.62 1.62 0 0024 36.27a8.61 8.61 0 00.22-2.35zm7.92-.24v-.3H30a11.6 11.6 0 010 1.43.9.9 0 01-.94.85q-1.08 0-1.08-1.61V32h4.19v-2.41a4.65 4.65 0 00-.66-2.72 3.2 3.2 0 00-5 0 4.52 4.52 0 00-.66 2.72v4.05a4.4 4.4 0 00.66 2.72 3 3 0 002.49 1.2 2.9 2.9 0 003-2.51 10.31 10.31 0 00.09-1.36zM17.89 12.3V7.38q0-1.61-1-1.61t-1 1.61v4.92q0 1.64 1 1.64t1-1.64zm16.85 17.6a40.6 40.6 0 01-.61 8.2 4.45 4.45 0 01-1.36 2.32 4.1 4.1 0 01-2.39 1.08 125.31 125.31 0 01-13 .49 125.31 125.31 0 01-13-.49A4.15 4.15 0 012 40.42 4.28 4.28 0 01.63 38.1 39.76 39.76 0 010 29.9a40.6 40.6 0 01.61-8.2A4.45 4.45 0 012 19.37a4.25 4.25 0 012.41-1.1q4.29-.47 13-.47t13 .47a4.4 4.4 0 013.75 3.42 39.76 39.76 0 01.58 8.21zM11.35 0h2.39l-2.83 9.35v6.35H8.57V9.35a39.68 39.68 0 00-1.43-5Q6.27 2 5.61 0H8.1l1.67 6.16zM20 7.8v4.1a4.59 4.59 0 01-.66 2.76 2.88 2.88 0 01-2.49 1.19 2.9 2.9 0 01-2.46-1.19 4.68 4.68 0 01-.66-2.76V7.8a4.59 4.59 0 01.66-2.74 2.9 2.9 0 012.46-1.19 2.88 2.88 0 012.49 1.19A4.59 4.59 0 0120 7.8zM27.87 4v11.7h-2.13v-1.27a3.37 3.37 0 01-2.41 1.45A1.31 1.31 0 0122 15a6 6 0 01-.19-1.76V4h2.13v8.6a6.14 6.14 0 000 .82.49.49 0 00.47.52 1.87 1.87 0 001.31-1V4h2.16z" fill="#fff"/></svg></svg>