<svg width="269" height="221" xmlns="http://www.w3.org/2000/svg" xmlns:xlink="http://www.w3.org/1999/xlink"><svg id="comment" data-name="Layer 1" width="66" height="66" viewBox="-1 -1 66 66" x="128" y="111.5" xmlns="http://www.w3.org/2000/svg"><path d="M.72.08A.67.67 0 000 .8v46.48a.72.72 0 00.72.72H48l16 16V.72a.67.67 0 00-.72-.72H.8z" fill="#2f5572"/></svg><svg id="facebook" data-name="Layer 1" viewBox="-1 -1 45.22 45.39" width="45.22" height="45.39" x="144.4" y="66" xmlns="http://www.w3.org/2000/svg"><defs><style>.bcls-1{fill:#fff}</style></defs><path class="bcls-1" d="M0 42.94V16.78l6.79-6.08V4.18h7.28c6-5.07 8.14-6 15-.09h7.27v6.45l6.93 6.25v26c-1.88.68-40.27.84-43.27.15zm34.14-19.71V6.31H8.93v16.78l5.22 4.08c8.67-5.51 8-4.39 14.89 0zm7.4 17.83A10.18 10.18 0 0040 39q-7.68-6.09-15.45-12.06c-2.11-1.62-3.74-1.68-5.83-.09-5.33 4.06-10.59 8.2-15.84 12.36a7.29 7.29 0 00-1.11 1.85zM2.18 20.69v16.19l10.29-8.11zm28.53 8.11l10.34 8.06V20.7zm6-14.8v7.28l4.26-3.54zM2.22 17.8l4.4 3.42V14zM24.79 3.87c-2.51-2.2-4.23-2.15-6.15 0z"/><path class="bcls-1" d="M11.76 13l.24-1.8c2.71-.65 17.6-.52 19.44.17L31.22 13zm.04 4.65l.2-1.82a92.25 92.25 0 0112.55.11l-.17 1.82a92.4 92.4 0 01-12.58-.11z"/></svg><svg id="fire" data-name="Layer 1" width="58" height="66" viewBox="-1 -1 58 66" x="144.4" xmlns="http://www.w3.org/2000/svg"><path d="M16 0C24 16 0 24 0 40s16 24 16 24C8.16 48.16 32 40 32 24S16 0 16 0zm24 24c8 16-16 24-16 40h24c3.2 0 8-4 8-16 0-16-16-24-16-24z" fill="#d4953d"/></svg><svg id="globe" data-name="Layer 1" viewBox="-1 -1 66 66" width="66" height="66" y="111.5" xmlns="http://www.w3.org/2000/svg"><defs><linearGradient id="dlinear-gradient" x1="32" y1="64" x2="32" gradientUnits="userSpaceOnUse"><stop offset=".14" stop-color="#d4953f"/><stop offset=".38" stop-color="#d59742" stop-opacity=".83"/><stop offset=".57" stop-color="#d69a48" stop-opacity=".6"/><stop offset=".65" stop-color="#d69a48" stop-opacity=".46"/><stop offset="1" stop-color="#fff" stop-opacity="0"/></linearGradient><style>.dcls-2{fill:#fff}</style></defs><circle cx="32" cy="32" r="32" fill="url(#dlinear-gradient)"/><path class="dcls-2" d="M27.13 25h-3.05v-3a.61.61 0 00-1.22 0v3h-3.05a.61.61 0 000 1.22h3.05v3a.61.61 0 101.22 0v-3h3.05a.61.61 0 000-1.22zm17.06 0h-7.32a.61.61 0 000 1.22h7.32a.61.61 0 000-1.22z"/><path class="dcls-2" d="M32.61 16.44H14.33v35.34h35.34V16.44zm-17.06 1.22h15.84V33.5H15.55zm0 32.9V34.72h15.84v15.84zm32.9 0H32.61V34.72h15.84zM32.61 33.5V17.66h15.84V33.5z"/><path class="dcls-2" d="M36.87 45.08h7.32a.61.61 0 00.6-.61.6.6 0 00-.6-.61h-7.32a.61.61 0 00-.61.61.62.62 0 00.61.61zm0-3.66h7.32a.61.61 0 000-1.22h-7.32a.61.61 0 000 1.22zM27 39.16a.6.6 0 00-.86 0l-2.62 2.62-2.62-2.62a.61.61 0 00-.9.84l2.62 2.62L20 45.25a.62.62 0 000 .87.65.65 0 00.43.17.61.61 0 00.43-.17l2.62-2.62 2.62 2.62a.61.61 0 00.43.17.65.65 0 00.43-.17.62.62 0 000-.87l-2.62-2.61L27 40a.6.6 0 000-.84z"/></svg><svg id="instagram" data-name="Layer 1" viewBox="-1 -1 44 42.93" width="44" height="42.93" y="177.5" xmlns="http://www.w3.org/2000/svg"><path d="M27.18 41.47a11.07 11.07 0 01-.68-2.13 21.22 21.22 0 010-3.19 7.87 7.87 0 00-3.62-7.28c3.59-.66 6.91-1.43 9-4.66l7.86.48c-1-1.23-2.33-.9-3.51-1.14s-2.48-.23-3.72-.54c2.46-1.15 5.12-.15 7.9-.8-1.31-1-2.61-.6-3.79-.7s-2.4 0-3.29 0c-.61-2-1.21-3.65-1.63-5.38a5.78 5.78 0 01.12-2.22c.22-1.44.4-2.86-.6-4.12-2-.29-3.54.81-5.13 1.74a13.81 13.81 0 00-10.06 0c-1.59-.88-3.1-2-5.14-1.79-1.5 1.85-.52 3.88-.39 5.14l-1.79 6.65c-2.1.19-4.44-.22-6.7.57 2.38 1 5.05-.29 7.9 1-2.87.48-5.35.22-7.61 1.1v.5l7.7-.49c2 3.23 5.36 4 8.84 4.6a5.86 5.86 0 01-5.54 2.8A4.74 4.74 0 019.7 30a5.15 5.15 0 00-3-2.08c.8 1.56 1.57 3 2.25 4.41a3.25 3.25 0 003.07 2h3.13c.71 3.19.47 5.66-.63 7C6.05 39.56-.67 29.65.05 19.89A21.2 21.2 0 0119.75.56a21.19 21.19 0 0122 18 21.13 21.13 0 01-14.57 22.91z" transform="translate(0 -.53)" fill="#fff"/></svg><svg id="kas-header-logo" data-name="Layer 1" viewBox="-1 -1 144.4 61.5" width="144.4" height="61.5" xmlns="http://www.w3.org/2000/svg"><path d="M37.42 57.06l-5.93-3-4.86-5.85-6.08-4.71-.55 5.66-.46 9.05-5.47.22-6.31-5.7L8 41.79l.91-9 .23-9.42-.23-7.45L9.15 3l8-1 3.35 5.85 1.29 11.86 4.41-5.78 5.47-8.58 4.86-.61 2.21 3.11 2.66 3.8-2.66 5.25-4.71 7.83-5.93 8.05L34.46 39l5.32 7.29 2.51 7.83zm1.14-9.88l-4.33-5.85-4.71-5.09-4.11-3.72 4.79-5L35.37 20l4.26-7.44-3.81-1.14-4.1 6.68-5.47 7.22-5.17 3.35-.91-9L19 9l-3.88.76L15 20.35l-.15 12-.38 11.71-.31 12.61h4.11l.45-10.41 1-11.17C25 36.16 37.88 55 37.88 55.24a12.94 12.94 0 003-1.67zm40.66 11.94L71 53.64l-1.58-13.83-3.42-.23A134.58 134.58 0 0157.94 57c-.31.68-.53 1.67-.76 2.35L50 57l-5.47-6.92a176.53 176.53 0 008.67-22c1-3.19 1.59-6.69 2.73-9.88 1.75-4.64 6.31-13.22 8.9-17.78l6.38 3.8c1.29 2.5 3 5.32 4.1 7.9L77 18c1 3.57 2 7.14 3.11 10.71C83 38.6 85.53 46.42 87 56.61zm-1-31.32c-1.06-3.49-2-7.52-3.34-10.87-1.22-3-2.51-6.61-4-9.5l-1.83 3.35-2.43 5.55-2.37 5.77c-1.9 4.49-2.81 9.35-4.41 13.91-2.28 6.61-4.94 13.23-7.53 19.76l4 1.83c2.43-5.1 7.14-13.53 7.9-19.16l4.79-.53c1.75-.76 4-.15 5.85-.07.84 3.42 1.29 4.33 2.13 7.44.38 1.45.3 3.12.68 4.56.54 2.21 1.37 4.41 2.06 6.54l5.24-1.52c-1.33-9.12-4.07-18.24-6.73-27.06zm-4.48 5.32l-4.41.76-2.28-1.14a48.64 48.64 0 011.52-10.49 10.6 10.6 0 015 1.22c-.08 1.22-.31 2.51-.31 3.65 0 .15.84 3.49.91 3.8zm42.72 24.71C108 57.06 96.55 50 96.55 50s-4.94-6.39-6.84-9.35l6.68-4.94c6.16 2 12.54 6.46 18.32 9.19a16.41 16.41 0 005.4-.3l3-3C114.25 38.44 95 29.63 95 19.21c0-7.9 12.39-19 20.07-19 .6 0 9 2.28 10.1 2.51l5.93 7.07-2.13 8.59a53.54 53.54 0 00-16.56-3.8c-2.13 1.14-3.81 2.43-3.81 5.09 0 12.62 26.76 10.79 26.76 27.36-.05 8.89-10.54 11.55-18.9 10.8zm-9-33.37a11.15 11.15 0 01-.23-6.84c.08-4.49 4.56-4.56 4.56-4.56a67 67 0 0116 3.19l1.37-5.17c-1-.3-8.81-3.11-11.32-3.49-4-.61-11.86 2.2-13.08 4.63 0 0-3.19 3.8-3.26 6.69 0 18.47 17.71 14.29 26.29 25.39 0 0 .31 3.87-1.14 5.7-1.14 1.21-5.16 1.9-5.47 1.9a30.18 30.18 0 01-19.46-7.6l-3.64 4.18c6.46 6.08 15.27 8.2 23.63 8.2 3.35 0 9-2.66 11.86-7.06-.01-16.95-17.26-14.62-26.08-25.16z" fill="none" stroke="#0e051d" stroke-miterlimit="10"/></svg><svg id="mail" data-name="Layer 1" width="66" height="50" viewBox="-1 -1 66 50" y="61.5" xmlns="http://www.w3.org/2000/svg"><path d="M0 0v8l32 16L64 8V0H0zm0 16v32h64V16L32 32z" fill="#2f5572"/></svg><svg id="rain" data-name="Layer 1" viewBox="-1 -1 66 66" width="66" height="66" x="202.4" y="66" xmlns="http://www.w3.org/2000/svg"><defs><linearGradient id="hlinear-gradient" x1="32" y1="64" x2="32" gradientUnits="userSpaceOnUse"><stop offset=".14" stop-color="#d4953f"/><stop offset=".38" stop-color="#d59742" stop-opacity=".83"/><stop offset=".57" stop-color="#d69a48" stop-opacity=".6"/><stop offset=".65" stop-color="#d69a48" stop-opacity=".46"/><stop offset="1" stop-color="#fff" stop-opacity="0"/></linearGradient></defs><circle cx="32" cy="32" r="32" fill="url(#hlinear-gradient)"/><path d="M41.59 54.06L37.37 52l-3.45-4.2-4.32-3.35-.38 4-.32 6.43L25 55l-4.48-4 .16-7.78.65-6.43.16-6.69-.16-5.29.16-9.18 5.72-.71 2.38 4.16.92 8.43 3.13-4.11 3.89-6.1 3.47-.44 1.57 2.21 1.89 2.7-1.9 3.73-3.35 5.56L35 36.78l4.48 4.43 3.78 5.19L45 52zm.81-7l-3.08-4.15L36 39.27l-2.92-2.65 3.41-3.56 3.67-5.35 3-5.29-2.7-.81-2.91 4.75-3.89 5.13L30 33.87l-.65-6.37-.81-7.62-2.76.54-.12 7.58-.11 8.53-.27 8.32-.22 9H28l.32-7.39.7-7.94c3.73.75 12.91 14.15 12.91 14.31A9.25 9.25 0 0044 51.58z" fill="none" stroke="#fcfcfc" stroke-miterlimit="10"/></svg><svg id="star" data-name="Layer 1" viewBox="-1 -1 66 66" width="66" height="66" x="202.4" xmlns="http://www.w3.org/2000/svg"><defs><style>.icls-3{fill:#fff}</style></defs><path d="M55.74 54.71v-28.9h-5.16v23.74a1 1 0 01-1 1H8.26a1 1 0 01-1-1v-28.9a1 1 0 011-1h9.29A6.17 6.17 0 0120 14.67l-.6-.18H7.21a5.17 5.17 0 00-5.17 5.16v35.1z" fill="#d4953f"/><path d="M14.45 37.16h8.26v5.16h-8.26zM28.9 28.9h14.45v5.16H28.9z" fill="#f0bc5e"/><path class="icls-3" d="M8.26 57.81h2.06v2.06H8.26zm4.13 0h2.06v2.06h-2.06z"/><path class="icls-3" d="M0 58.84A5.17 5.17 0 005.16 64h47.49a5.17 5.17 0 005.16-5.16v-5.16H0zm35.84-3.1l-.52 2.07H22.48L22 55.74zm-33.78 0h17.78l1 4.13h16.1l1-4.13h17.8v3.1a3.1 3.1 0 01-3.09 3.1H5.16a3.1 3.1 0 01-3.1-3.1zm55.7-43.29a9.31 9.31 0 00-9.24-8.32 9.18 9.18 0 00-3.61.74 12.37 12.37 0 00-22.2 7.52v.08a7.22 7.22 0 00-6.11 6.11H8.26a2.07 2.07 0 00-2.07 2.07v28.9a2.07 2.07 0 002.07 2.06h41.29a2.06 2.06 0 002.06-2.06V26.84h5.16a7.23 7.23 0 001-14.39zm-8.21 37.1H8.26v-28.9h8.34a7.23 7.23 0 007.14 6.19h1V33H10.32v14.48H33v-8.25h14.48V26.84h2.07zM31 39.23v6.19H12.39V35.1h12.38v4.13zm-4.13-2.07V26.84h18.55v10.32zm29.9-12.39h-33a5.15 5.15 0 01-.82-10.23 12.36 12.36 0 001.15 3.51l1.84-.95A10.31 10.31 0 0143.1 5.89a9.14 9.14 0 00-1.89 1.79L42.83 9a7.22 7.22 0 0112.91 4.46v1h1a5.16 5.16 0 110 10.32z"/><path class="icls-3" d="M37.24 22.38L41.37 10l2 .65L39.19 23zm6.49-10.23L49 16.52l-5.24 4.36 1.32 1.59 7.14-5.95-7.14-6zm-8.26-1.59l-7.15 6 7.15 5.95 1.32-1.59-5.24-4.36 5.24-4.37zM28.9 28.9h14.45V31H28.9zm0 4.1h14.45v2.1H28.9zm-14.45 4.16h8.26v2.07h-8.26zm0 4.13H28.9v2.06H14.45zM10.32 28.9h2.07V31h-2.07zm2.07-4.13h2.06v-2.06h-4.13v4.13h2.07z"/></svg><svg id="twitter" data-name="Layer 1" width="53.78" height="44.06" viewBox="-1 -1 53.78 44.06" x="202.4" y="132" xmlns="http://www.w3.org/2000/svg"><path d="M51.78 5a22.23 22.23 0 01-5.32 5.52v1.38a30.15 30.15 0 01-1.25 8.53 30.81 30.81 0 01-3.76 8.13 32.1 32.1 0 01-6.06 6.92 27 27 0 01-8.48 4.8 31 31 0 01-10.62 1.8A29.47 29.47 0 010 37.29a22.71 22.71 0 002.56.13 20.78 20.78 0 0013.17-4.53 10.63 10.63 0 01-9.92-7.36 13.45 13.45 0 002 .16 11 11 0 002.79-.36 10.44 10.44 0 01-6.09-3.67 10.25 10.25 0 01-2.41-6.75v-.13a10.52 10.52 0 004.8 1.34 10.6 10.6 0 01-3.45-3.78 10.34 10.34 0 01-1.28-5.07 10.4 10.4 0 011.45-5.33 30.08 30.08 0 009.71 7.83A29.57 29.57 0 0025.53 13a11.79 11.79 0 01-.26-2.43 10.23 10.23 0 013-7.48 10.64 10.64 0 0115 0l.21.22A20.81 20.81 0 0050.33.8a10.3 10.3 0 01-4.67 5.85A21.14 21.14 0 0051.78 5z" fill="#fff"/></svg><svg id="wifi" data-name="Layer 1" width="62" height="66" viewBox="-1 -1 62 66" x="66" y="111.5" xmlns="http://www.w3.org/2000/svg"><path d="M29.88 0A55.39 55.39 0 000 8.72l4.22 6.48a47.32 47.32 0 0125.66-7.28 47.31 47.31 0 0125.9 7.28L60 8.72A55.53 55.53 0 0029.88 0zm0 24a31.08 31.08 0 00-17 5l4.22 6.72A23.09 23.09 0 0129.8 32a24.17 24.17 0 0113 3.76L47 29a32.37 32.37 0 00-17.2-5h.07zm0 24a8 8 0 108 8 8 8 0 00-8-8z" fill="#d4953e"/></svg><svg id="youtube" data-name="Layer 1" viewBox="-1 -1 45.78 45.78" width="45.78" height="45.78" x="66" y="61.5" xmlns="http://www.w3.org/2000/svg"><defs><style>.lcls-1{fill:#fff}</style></defs><path class="lcls-1" d="M22.11 0h15.5c4.48 0 6.26 1.74 6.27 6.12 0 10.44-.11 20.89.08 31.33a5.8 5.8 0 01-6.27 6.27Q22 43.43 6.36 43.7a5.73 5.73 0 01-6.18-6Q.42 21.85.18 6a5.67 5.67 0 016.1-6.07C11.55.15 16.83 0 22.11 0zm17.52 4.05h-32c-.87 0-1.74.11-2.61.19-.09 0-.17.12-.25.19s-.16.15-.31.28c0 .6-.13 1.25-.13 1.9v31.62a2.15 2.15 0 00.16.64.87.87 0 00.19.25c.07.09.15.16.28.31.6 0 1.25.13 1.9.13h31.62a2.08 2.08 0 00.64-.16.87.87 0 00.25-.19 2.73 2.73 0 00.25-.23z" transform="translate(-.18 .07)"/><path class="lcls-1" d="M23.55 35.53h-5.79V16.92h5.4l.41 1.65a2.31 2.31 0 00.47-.11c1.23-.65 2.39-1.69 3.69-1.91 4.88-.83 7.77 1.58 8.18 6.55.08.88.06 1.76.06 2.64v9.61c-1.93.67-3.74.31-5.9.27C30 34.25 30 33 30 31.71c0-2.42.05-4.84-.11-7.24a2.54 2.54 0 00-2.69-2.71c-1.71-.08-2.74.53-3.16 2.21a17.46 17.46 0 00-.46 3.89c-.08 2.5-.03 5-.03 7.67zM8.16 16.88h5.48c.63 2.51.79 13.43.29 18.61H8.19c-.06-6.08-.02-12.16-.03-18.61zm6.39-6a3.59 3.59 0 01-3.76 3.3 3.46 3.46 0 01-3.19-3.52 3.61 3.61 0 013.74-3.32 3.66 3.66 0 013.21 3.54z" transform="translate(-.18 .07)"/></svg></svg>