<?xml version="1.0" encoding="utf-8"?><svg width="257" height="194" viewBox="0 0 257 194" xmlns="http://www.w3.org/2000/svg" xmlns:xlink="http://www.w3.org/1999/xlink"><svg id="comment" data-name="Layer 1" width="66" height="66" viewBox="-1 -1 66 66" y="61.5" xmlns="http://www.w3.org/2000/svg"><defs><style>.acls-1{fill:#2f5572}</style></defs><path class="acls-1" d="M.72.08A.67.67 0 000 .8v46.48a.72.72 0 00.72.72H48l16 16V.72a.67.67 0 00-.72-.72H.8z"/></svg><svg id="facebook" data-name="Layer 1" viewBox="-1 -1 45.22 45.39" width="45.22" height="45.39" x="210.4" y="45.78" xmlns="http://www.w3.org/2000/svg"><defs><style>.bcls-1{fill:#fff}</style></defs><path class="bcls-1" d="M0 42.94V16.78l6.79-6.08V4.18h7.28c6-5.07 8.14-6 15-.09h7.27v6.45l6.93 6.25v26c-1.88.68-40.27.84-43.27.15zm34.14-19.71V6.31H8.93v16.78l5.22 4.08c8.67-5.51 8-4.39 14.89 0zm7.4 17.83A10.18 10.18 0 0040 39q-7.68-6.09-15.45-12.06c-2.11-1.62-3.74-1.68-5.83-.09-5.33 4.06-10.59 8.2-15.84 12.36a7.29 7.29 0 00-1.11 1.85zM2.18 20.69v16.19l10.29-8.11zm28.53 8.11l10.34 8.06V20.7zm6-14.8v7.28l4.26-3.54zM2.22 17.8l4.4 3.42V14zM24.79 3.87c-2.51-2.2-4.23-2.15-6.15 0z"/><path class="bcls-1" d="M11.76 13l.24-1.8c2.71-.65 17.6-.52 19.44.17L31.22 13zM11.8 17.65l.2-1.82a92.25 92.25 0 0112.55.11l-.17 1.82a92.4 92.4 0 01-12.58-.11z"/></svg><svg id="fire" data-name="Layer 1" viewBox="-1 -1 66 66" width="66" height="66" x="66" y="61.5" xmlns="http://www.w3.org/2000/svg"><defs><linearGradient id="clinear-gradient" x1="32" y1="598" x2="32" y2="534" gradientTransform="translate(0 -534)" gradientUnits="userSpaceOnUse"><stop offset=".14" stop-color="#d4953f"/><stop offset=".38" stop-color="#d59742" stop-opacity=".83"/><stop offset=".57" stop-color="#d69a48" stop-opacity=".6"/><stop offset=".65" stop-color="#d69a48" stop-opacity=".46"/><stop offset="1" stop-color="#fff" stop-opacity="0"/></linearGradient><style>.ccls-1{fill:url(#clinear-gradient)}.ccls-2{fill:#fff}</style></defs><circle class="ccls-1" cx="32" cy="32" r="32"/><path class="ccls-2" d="M27.67 14.39c-1.89.92-3-.62-4.49-1.36 1-.5 1.83-.95 2.7-1.37A30.26 30.26 0 0132.9 9c6.61-1.45 12.81 2.88 14.76 8.51a23.16 23.16 0 011 10c-.18 2-.44 4-.67 6 1 .4 2.07.78 3.08 1.21a14.21 14.21 0 012 1c1.34.85 1.54 1.79.72 3.14-1.38 2.27-3.17 4-5.93 4.42-1.16.16-1.49.74-1.66 1.82-.33 2.23-.8 4.43-1.31 6.63a3.69 3.69 0 01-3.63 3 5.14 5.14 0 01-1.38-.33c-1.45-.46-2.89-.92-4.33-1.42a.75.75 0 00-.91.24c-1 1.05-2 2.05-2.92 3.14a3 3 0 01-4.81-.38c-.58-1-1.08-2.12-1.67-3.15a22.16 22.16 0 00-1.52-2.33 2.4 2.4 0 00-2-.85c-2.14 0-4.28-.15-6.42-.23a2.06 2.06 0 01-.26 0c-2.12-.46-2.76-1.59-2-3.6.59-1.49 1.28-2.94 1.92-4.4.45-1 .37-1.41-.52-2.06a19 19 0 00-1.8-1.16A8.43 8.43 0 0110 35.46c-.77-1.15-.59-2 .67-2.51 2-.82 4-1.5 6-2.25 1.44-.54 2.88-1.09 4.31-1.65a4.66 4.66 0 002.72-2.87c1.14-3 2.4-5.94 3.58-8.92a3.74 3.74 0 00.39-2.87zM10.79 34.33a8 8 0 002.8 2.79 14.19 14.19 0 011.79 1.18 2.56 2.56 0 01.88 3.49c-.09.2-.2.38-.28.58-.62 1.46-1.23 2.91-1.83 4.38a.72.72 0 00.5 1.07 6.32 6.32 0 001.51.34c1.89.08 3.77.12 5.66.13a3.34 3.34 0 012.54 1 16.53 16.53 0 011.79 2.45c.67 1.12 1.16 2.33 1.83 3.44a1.57 1.57 0 002.74.27c1-1.05 2-2.08 3-3.18a1.87 1.87 0 012.22-.56q2.25.75 4.5 1.47a2.27 2.27 0 003.17-1.73c.5-2.13 1-4.27 1.31-6.43.82-5.46 1.56-10.94 2.31-16.41a22.91 22.91 0 00-.5-9.61 11.59 11.59 0 00-9.08-8.71c-4.29-.94-8 1-11.64 2.92a1.83 1.83 0 001 .05c1.18-.3 2 .16 2.07 1.36a3.94 3.94 0 01-.14 1.78C27.46 20.17 26 24 24.42 27.72c-.65 1.57-2.14 2.28-3.64 2.84-2.89 1.07-5.78 2.1-8.67 3.16-.43.16-.84.39-1.32.61zm35.86 8.26a2.11 2.11 0 00.3 0 8.71 8.71 0 005.76-4.27c.48-.75.4-1.2-.43-1.65-1.44-.77-2.93-1.45-4.46-2.19z"/><path class="ccls-2" d="M35 33.16c-.23-2.22-.45-4.41-.68-6.6a7.6 7.6 0 00-.11-1.17c-.1-.37-.34-.7-.45-1.07s-.29-.85-.15-1.13.65-.49 1.1-.79a3.68 3.68 0 01.75-3.32 4.18 4.18 0 011.8-1.19 3.26 3.26 0 013.85 2 3.93 3.93 0 01-1.25 4.77c-1.41 1-3 .7-4.46-.77-.71.52-.61 1.23-.52 2 .27 2.28.48 4.57.69 6.86a.56.56 0 00.53.59c1.43.32 2 1.06 1.66 2.49-.55 2.53-1.46 4.87-4 6.19-1.41.75-2.81 1.54-4.23 2.29-.16.09-.41 0-.62 0l-.05-.22 1-.62c1.12-.71 2.24-1.4 3.34-2.14a6.16 6.16 0 002.61-3.3c.22-.68.54-1.32.74-2 .25-.86 0-1.22-.83-1.42a7.24 7.24 0 00-1.54-.22c-2.12-.06-4.25-.07-6.37-.11a1.77 1.77 0 01-.55-.24c.17-.11.33-.31.51-.32 2.29-.2 4.58-.37 6.87-.54zm5.53-11.59a2.7 2.7 0 00-2.47-2.82 2.62 2.62 0 00-2.52 2.75A2.64 2.64 0 0038 24.24a2.57 2.57 0 002.52-2.67zm-5.42 2.1c-.32-.27-.5-.53-.71-.55s-.49.33-.46.46a.86.86 0 00.48.56c.11.04.36-.24.68-.47z"/><path class="ccls-2" d="M37.19 21.36l.12-.26a1.58 1.58 0 01.14.36 1.41 1.41 0 00.67 1.25c.08 0 .12.2.18.3s-.19.13-.28.1c-.45-.11-.83-.9-.83-1.75z"/></svg><svg id="globe" data-name="Layer 1" viewBox="-1 -1 66 66" width="66" height="66" x="144.4" xmlns="http://www.w3.org/2000/svg"><defs><linearGradient id="dlinear-gradient" x1="32" y1="64" x2="32" gradientUnits="userSpaceOnUse"><stop offset=".14" stop-color="#d4953f"/><stop offset=".38" stop-color="#d59742" stop-opacity=".83"/><stop offset=".57" stop-color="#d69a48" stop-opacity=".6"/><stop offset=".65" stop-color="#d69a48" stop-opacity=".46"/><stop offset="1" stop-color="#fff" stop-opacity="0"/></linearGradient><style>.dcls-1{fill:url(#dlinear-gradient)}.dcls-2{fill:#fff}</style></defs><circle class="dcls-1" cx="32" cy="32" r="32"/><path class="dcls-2" d="M27.13 25h-3.05v-3a.61.61 0 00-1.22 0v3h-3.05a.61.61 0 000 1.22h3.05v3a.61.61 0 101.22 0v-3h3.05a.61.61 0 000-1.22zM44.19 25h-7.32a.61.61 0 000 1.22h7.32a.61.61 0 000-1.22z"/><path class="dcls-2" d="M32.61 16.44H14.33v35.34h35.34V16.44zm-17.06 1.22h15.84V33.5H15.55zm0 32.9V34.72h15.84v15.84zm32.9 0H32.61V34.72h15.84zM32.61 33.5V17.66h15.84V33.5z"/><path class="dcls-2" d="M36.87 45.08h7.32a.61.61 0 00.6-.61.6.6 0 00-.6-.61h-7.32a.61.61 0 00-.61.61.62.62 0 00.61.61zM36.87 41.42h7.32a.61.61 0 000-1.22h-7.32a.61.61 0 000 1.22zM27 39.16a.6.6 0 00-.86 0l-2.62 2.62-2.62-2.62a.61.61 0 00-.9.84l2.62 2.62L20 45.25a.62.62 0 000 .87.65.65 0 00.43.17.61.61 0 00.43-.17l2.62-2.62 2.62 2.62a.61.61 0 00.43.17.65.65 0 00.43-.17.62.62 0 000-.87l-2.62-2.61L27 40a.6.6 0 000-.84z"/></svg><svg id="instagram" data-name="Layer 1" viewBox="-1 -1 44 42.93" width="44" height="42.93" x="210.4" y="135.23000000000002" xmlns="http://www.w3.org/2000/svg"><defs><style>.ecls-1{fill:#fff}</style></defs><path class="ecls-1" d="M27.18 41.47a11.07 11.07 0 01-.68-2.13 21.22 21.22 0 010-3.19 7.87 7.87 0 00-3.62-7.28c3.59-.66 6.91-1.43 9-4.66l7.86.48c-1-1.23-2.33-.9-3.51-1.14s-2.48-.23-3.72-.54c2.46-1.15 5.12-.15 7.9-.8-1.31-1-2.61-.6-3.79-.7s-2.4 0-3.29 0c-.61-2-1.21-3.65-1.63-5.38a5.78 5.78 0 01.12-2.22c.22-1.44.4-2.86-.6-4.12-2-.29-3.54.81-5.13 1.74a13.81 13.81 0 00-10.06 0c-1.59-.88-3.1-2-5.14-1.79-1.5 1.85-.52 3.88-.39 5.14l-1.79 6.65c-2.1.19-4.44-.22-6.7.57 2.38 1 5.05-.29 7.9 1-2.87.48-5.35.22-7.61 1.1v.5l7.7-.49c2 3.23 5.36 4 8.84 4.6a5.86 5.86 0 01-5.54 2.8A4.74 4.74 0 019.7 30a5.15 5.15 0 00-3-2.08c.8 1.56 1.57 3 2.25 4.41a3.25 3.25 0 003.07 2h3.13c.71 3.19.47 5.66-.63 7C6.05 39.56-.67 29.65.05 19.89A21.2 21.2 0 0119.75.56a21.19 21.19 0 0122 18 21.13 21.13 0 01-14.57 22.91z" transform="translate(0 -.53)"/></svg><svg id="kas-header-logo" data-name="Layer 1" viewBox="-1 -1 144.4 61.5" width="144.4" height="61.5" xmlns="http://www.w3.org/2000/svg"><defs><style>.fcls-1{fill:none;stroke:#0e051d;stroke-miterlimit:10}</style></defs><path class="fcls-1" d="M37.42 57.06l-5.93-3-4.86-5.85-6.08-4.71-.55 5.66-.46 9.05-5.47.22-6.31-5.7L8 41.79l.91-9 .23-9.42-.23-7.45L9.15 3l8-1 3.35 5.85 1.29 11.86 4.41-5.78 5.47-8.58 4.86-.61 2.21 3.11 2.66 3.8-2.66 5.25-4.71 7.83-5.93 8.05L34.46 39l5.32 7.29 2.51 7.83zm1.14-9.88l-4.33-5.85-4.71-5.09-4.11-3.72 4.79-5L35.37 20l4.26-7.44-3.81-1.14-4.1 6.68-5.47 7.22-5.17 3.35-.91-9L19 9l-3.88.76L15 20.35l-.15 12-.38 11.71-.31 12.61h4.11l.45-10.41 1-11.17C25 36.16 37.88 55 37.88 55.24a12.94 12.94 0 003-1.67zM79.22 59.12L71 53.64l-1.58-13.83-3.42-.23A134.58 134.58 0 0157.94 57c-.31.68-.53 1.67-.76 2.35L50 57l-5.47-6.92a176.53 176.53 0 008.67-22c1-3.19 1.59-6.69 2.73-9.88 1.75-4.64 6.31-13.22 8.9-17.78l6.38 3.8c1.29 2.5 3 5.32 4.1 7.9L77 18c1 3.57 2 7.14 3.11 10.71C83 38.6 85.53 46.42 87 56.61zm-1-31.32c-1.06-3.49-2-7.52-3.34-10.87-1.22-3-2.51-6.61-4-9.5l-1.83 3.35-2.43 5.55-2.37 5.77c-1.9 4.49-2.81 9.35-4.41 13.91-2.28 6.61-4.94 13.23-7.53 19.76l4 1.83c2.43-5.1 7.14-13.53 7.9-19.16l4.79-.53c1.75-.76 4-.15 5.85-.07.84 3.42 1.29 4.33 2.13 7.44.38 1.45.3 3.12.68 4.56.54 2.21 1.37 4.41 2.06 6.54l5.24-1.52c-1.33-9.12-4.07-18.24-6.73-27.06zm-4.48 5.32l-4.41.76-2.28-1.14a48.64 48.64 0 011.52-10.49 10.6 10.6 0 015 1.22c-.08 1.22-.31 2.51-.31 3.65 0 .15.84 3.49.91 3.8zM116.46 57.83C108 57.06 96.55 50 96.55 50s-4.94-6.39-6.84-9.35l6.68-4.94c6.16 2 12.54 6.46 18.32 9.19a16.41 16.41 0 005.4-.3l3-3C114.25 38.44 95 29.63 95 19.21c0-7.9 12.39-19 20.07-19 .6 0 9 2.28 10.1 2.51l5.93 7.07-2.13 8.59a53.54 53.54 0 00-16.56-3.8c-2.13 1.14-3.81 2.43-3.81 5.09 0 12.62 26.76 10.79 26.76 27.36-.05 8.89-10.54 11.55-18.9 10.8zm-9-33.37a11.15 11.15 0 01-.23-6.84c.08-4.49 4.56-4.56 4.56-4.56a67 67 0 0116 3.19l1.37-5.17c-1-.3-8.81-3.11-11.32-3.49-4-.61-11.86 2.2-13.08 4.63 0 0-3.19 3.8-3.26 6.69 0 18.47 17.71 14.29 26.29 25.39 0 0 .31 3.87-1.14 5.7-1.14 1.21-5.16 1.9-5.47 1.9a30.18 30.18 0 01-19.46-7.6l-3.64 4.18c6.46 6.08 15.27 8.2 23.63 8.2 3.35 0 9-2.66 11.86-7.06-.01-16.95-17.26-14.62-26.08-25.16z"/></svg><svg id="mail" data-name="Layer 1" viewBox="-1 -1 65.94 49.95" width="65.94" height="49.95" x="144.4" y="66" xmlns="http://www.w3.org/2000/svg"><defs><style>.gcls-1{fill:#d59541}</style></defs><path class="gcls-1" d="M64 40a7.88 7.88 0 01-1 3.85L42.79 21.22l20-17.47A8 8 0 0164 8v32zM32 25.32L59.82 1A7.85 7.85 0 0056 0H8a7.78 7.78 0 00-3.8 1zm7.75-1.47l-6.43 5.63A2 2 0 0132 30a2 2 0 01-1.31-.49l-6.44-5.63L3.84 46.73A7.94 7.94 0 008.05 48H56a7.94 7.94 0 004.21-1.22zM1.31 3.75A7.9 7.9 0 00.06 8v32a7.88 7.88 0 001 3.85l20.18-22.6z" transform="translate(-.06)"/></svg><svg id="rain" data-name="Layer 1" viewBox="-1 -1 66 66" width="66" height="66" x="132" y="127.5" xmlns="http://www.w3.org/2000/svg"><defs><linearGradient id="hlinear-gradient" x1="32" y1="2" x2="32" y2="66" gradientTransform="matrix(1 0 0 -1 0 66)" gradientUnits="userSpaceOnUse"><stop offset=".14" stop-color="#d4953f"/><stop offset=".38" stop-color="#d59742" stop-opacity=".83"/><stop offset=".57" stop-color="#d69a48" stop-opacity=".6"/><stop offset=".65" stop-color="#d69a48" stop-opacity=".46"/><stop offset="1" stop-color="#fff" stop-opacity="0"/></linearGradient><style>.hcls-1{fill:url(#hlinear-gradient)}.hcls-2{fill:#fff;fill-rule:evenodd}</style></defs><circle class="hcls-1" cx="32" cy="32" r="32"/><path class="hcls-2" d="M36.45 48.29C44.24 46.75 49.8 41 49.8 32.55v-11H35v14.87h5.9A9.81 9.81 0 0135 45.1zm-20.77 0C23.47 46.75 29 41 29 32.55v-11H14.2v14.87h5.93a9.81 9.81 0 01-5.93 8.68zm.84-1.71l-.36-.77a11.4 11.4 0 005.45-9.39v-1.48h-5.93V23.07h11.84v9.48c0 7-4.18 12.24-11 14m20.77 0l-.36-.77a11.42 11.42 0 005.46-9.39v-1.45h-5.91V23.07h11.84v9.48c0 7-4.19 12.24-11 14"/></svg><svg id="star" data-name="Layer 1" viewBox="-1 -1 66 66" width="66" height="66" x="66" y="127.5" xmlns="http://www.w3.org/2000/svg"><defs><style>.icls-1{fill:#d4953f}.icls-2{fill:#f0bc5e}.icls-3{fill:#fff}</style></defs><path class="icls-1" d="M55.74 54.71v-28.9h-5.16v23.74a1 1 0 01-1 1H8.26a1 1 0 01-1-1v-28.9a1 1 0 011-1h9.29A6.17 6.17 0 0120 14.67l-.6-.18H7.21a5.17 5.17 0 00-5.17 5.16v35.1z"/><path class="icls-2" d="M14.45 37.16h8.26v5.16h-8.26zM28.9 28.9h14.45v5.16H28.9z"/><path class="icls-3" d="M8.26 57.81h2.06v2.06H8.26zM12.39 57.81h2.06v2.06h-2.06z"/><path class="icls-3" d="M0 58.84A5.17 5.17 0 005.16 64h47.49a5.17 5.17 0 005.16-5.16v-5.16H0zm35.84-3.1l-.52 2.07H22.48L22 55.74zm-33.78 0h17.78l1 4.13h16.1l1-4.13h17.8v3.1a3.1 3.1 0 01-3.09 3.1H5.16a3.1 3.1 0 01-3.1-3.1zM57.76 12.45a9.31 9.31 0 00-9.24-8.32 9.18 9.18 0 00-3.61.74 12.37 12.37 0 00-22.2 7.52v.08a7.22 7.22 0 00-6.11 6.11H8.26a2.07 2.07 0 00-2.07 2.07v28.9a2.07 2.07 0 002.07 2.06h41.29a2.06 2.06 0 002.06-2.06V26.84h5.16a7.23 7.23 0 001-14.39zm-8.21 37.1H8.26v-28.9h8.34a7.23 7.23 0 007.14 6.19h1V33H10.32v14.48H33v-8.25h14.48V26.84h2.07zM31 39.23v6.19H12.39V35.1h12.38v4.13zm-4.13-2.07V26.84h18.55v10.32zm29.9-12.39h-33a5.15 5.15 0 01-.82-10.23 12.36 12.36 0 001.15 3.51l1.84-.95A10.31 10.31 0 0143.1 5.89a9.14 9.14 0 00-1.89 1.79L42.83 9a7.22 7.22 0 0112.91 4.46v1h1a5.16 5.16 0 110 10.32z"/><path class="icls-3" d="M37.24 22.38L41.37 10l2 .65L39.19 23zM43.73 12.15L49 16.52l-5.24 4.36 1.32 1.59 7.14-5.95-7.14-6zM35.47 10.56l-7.15 6 7.15 5.95 1.32-1.59-5.24-4.36 5.24-4.37zM28.9 28.9h14.45V31H28.9zM28.9 33h14.45v2.1H28.9zM14.45 37.16h8.26v2.07h-8.26zM14.45 41.29H28.9v2.06H14.45zM10.32 28.9h2.07V31h-2.07zM12.39 24.77h2.06v-2.06h-4.13v4.13h2.07z"/></svg><svg id="twitter" data-name="Layer 1" viewBox="-1 -1 44.06 44.06" width="44.06" height="44.06" x="210.4" y="91.17" xmlns="http://www.w3.org/2000/svg"><defs><style>.jcls-1{fill:#fff}</style></defs><path class="jcls-1" d="M10.36 27.44l14.15 9.43v-8.42l-7.84-5.24zM8.9 24.06l4.53-3L8.9 18zm19.23 12.81l14.15-9.43L36 23.21l-7.83 5.24zM26.32 25.3L32.7 21l-6.38-4.27L19.93 21zm-9.65-6.45l7.84-5.24V5.19l-14.15 9.43zM39.2 21l4.53 3v-6zM36 18.85l6.32-4.23-14.19-9.43v8.42zm11.39-4.23v12.82a1.72 1.72 0 01-.8 1.5L27.33 41.75a1.86 1.86 0 01-1 .31 1.84 1.84 0 01-1-.31L6.09 28.94a1.7 1.7 0 01-.8-1.5V14.62a1.7 1.7 0 01.8-1.5L25.31.31a1.84 1.84 0 011-.31 1.86 1.86 0 011 .31l19.24 12.81a1.72 1.72 0 01.8 1.5z" transform="translate(-5.29)"/></svg><svg id="wifi" data-name="Layer 1" viewBox="-1 -1 66 66" width="66" height="66" y="127.5" xmlns="http://www.w3.org/2000/svg"><defs><linearGradient id="klinear-gradient" x1="32" y1="598" x2="32" y2="534" gradientTransform="translate(0 -534)" gradientUnits="userSpaceOnUse"><stop offset=".14" stop-color="#d4953f"/><stop offset=".38" stop-color="#d59742" stop-opacity=".83"/><stop offset=".57" stop-color="#d69a48" stop-opacity=".6"/><stop offset=".65" stop-color="#d69a48" stop-opacity=".46"/><stop offset="1" stop-color="#fff" stop-opacity="0"/></linearGradient><style>.kcls-1{fill:url(#klinear-gradient)}.kcls-2{fill:#fff}</style></defs><circle class="kcls-1" cx="32" cy="32" r="32"/><path class="kcls-2" d="M25.55 57.73L26.7 12h4.51l-1.44 31.67c-.14 3.4-.48 6.14-.53 6.57.15-.43 1.06-3.36 2.31-6.72l10.7-27.89H47l-17 42.1z"/></svg><svg id="youtube" data-name="Layer 1" viewBox="-1 -1 45.78 45.78" width="45.78" height="45.78" x="210.4" xmlns="http://www.w3.org/2000/svg"><defs><style>.lcls-1{fill:#fff}</style></defs><path class="lcls-1" d="M22.11 0h15.5c4.48 0 6.26 1.74 6.27 6.12 0 10.44-.11 20.89.08 31.33a5.8 5.8 0 01-6.27 6.27Q22 43.43 6.36 43.7a5.73 5.73 0 01-6.18-6Q.42 21.85.18 6a5.67 5.67 0 016.1-6.07C11.55.15 16.83 0 22.11 0zm17.52 4.05h-32c-.87 0-1.74.11-2.61.19-.09 0-.17.12-.25.19s-.16.15-.31.28c0 .6-.13 1.25-.13 1.9v31.62a2.15 2.15 0 00.16.64.87.87 0 00.19.25c.07.09.15.16.28.31.6 0 1.25.13 1.9.13h31.62a2.08 2.08 0 00.64-.16.87.87 0 00.25-.19 2.73 2.73 0 00.25-.23z" transform="translate(-.18 .07)"/><path class="lcls-1" d="M23.55 35.53h-5.79V16.92h5.4l.41 1.65a2.31 2.31 0 00.47-.11c1.23-.65 2.39-1.69 3.69-1.91 4.88-.83 7.77 1.58 8.18 6.55.08.88.06 1.76.06 2.64v9.61c-1.93.67-3.74.31-5.9.27C30 34.25 30 33 30 31.71c0-2.42.05-4.84-.11-7.24a2.54 2.54 0 00-2.69-2.71c-1.71-.08-2.74.53-3.16 2.21a17.46 17.46 0 00-.46 3.89c-.08 2.5-.03 5-.03 7.67zM8.16 16.88h5.48c.63 2.51.79 13.43.29 18.61H8.19c-.06-6.08-.02-12.16-.03-18.61zM14.55 10.88a3.59 3.59 0 01-3.76 3.3 3.46 3.46 0 01-3.19-3.52 3.61 3.61 0 013.74-3.32 3.66 3.66 0 013.21 3.54z" transform="translate(-.18 .07)"/></svg></svg>