<?xml version="1.0" encoding="utf-8"?><svg width="273" height="221" viewBox="0 0 273 221" xmlns="http://www.w3.org/2000/svg" xmlns:xlink="http://www.w3.org/1999/xlink"><svg id="clear-view-escapes" data-name="Layer 1" viewBox="-1 -1 144.4 61.5" width="144.4" height="61.5" xmlns="http://www.w3.org/2000/svg"><defs><style>.acls-1{fill:none;stroke:#0e051d;stroke-miterlimit:10}</style></defs><path class="acls-1" d="M37.42 57.06l-5.93-3-4.86-5.85-6.08-4.71-.55 5.66-.46 9.05-5.47.22-6.31-5.7L8 41.79l.91-9 .23-9.42-.23-7.45L9.15 3l8-1 3.35 5.85 1.29 11.86 4.41-5.78 5.47-8.58 4.86-.61 2.21 3.11 2.66 3.8-2.66 5.25-4.71 7.83-5.93 8.05L34.46 39l5.32 7.29 2.51 7.83zm1.14-9.88l-4.33-5.85-4.71-5.09-4.11-3.72 4.79-5L35.37 20l4.26-7.44-3.81-1.14-4.1 6.68-5.47 7.22-5.17 3.35-.91-9L19 9l-3.88.76L15 20.35l-.15 12-.38 11.71-.31 12.61h4.11l.45-10.41 1-11.17C25 36.16 37.88 55 37.88 55.24a12.94 12.94 0 003-1.67zM79.22 59.12L71 53.64l-1.58-13.83-3.42-.23A134.58 134.58 0 0157.94 57c-.31.68-.53 1.67-.76 2.35L50 57l-5.47-6.92a176.53 176.53 0 008.67-22c1-3.19 1.59-6.69 2.73-9.88 1.75-4.64 6.31-13.22 8.9-17.78l6.38 3.8c1.29 2.5 3 5.32 4.1 7.9L77 18c1 3.57 2 7.14 3.11 10.71C83 38.6 85.53 46.42 87 56.61zm-1-31.32c-1.06-3.49-2-7.52-3.34-10.87-1.22-3-2.51-6.61-4-9.5l-1.83 3.35-2.43 5.55-2.37 5.77c-1.9 4.49-2.81 9.35-4.41 13.91-2.28 6.61-4.94 13.23-7.53 19.76l4 1.83c2.43-5.1 7.14-13.53 7.9-19.16l4.79-.53c1.75-.76 4-.15 5.85-.07.84 3.42 1.29 4.33 2.13 7.44.38 1.45.3 3.12.68 4.56.54 2.21 1.37 4.41 2.06 6.54l5.24-1.52c-1.33-9.12-4.07-18.24-6.73-27.06zm-4.48 5.32l-4.41.76-2.28-1.14a48.64 48.64 0 011.52-10.49 10.6 10.6 0 015 1.22c-.08 1.22-.31 2.51-.31 3.65 0 .15.84 3.49.91 3.8zM116.46 57.83C108 57.06 96.55 50 96.55 50s-4.94-6.39-6.84-9.35l6.68-4.94c6.16 2 12.54 6.46 18.32 9.19a16.41 16.41 0 005.4-.3l3-3C114.25 38.44 95 29.63 95 19.21c0-7.9 12.39-19 20.07-19 .6 0 9 2.28 10.1 2.51l5.93 7.07-2.13 8.59a53.54 53.54 0 00-16.56-3.8c-2.13 1.14-3.81 2.43-3.81 5.09 0 12.62 26.76 10.79 26.76 27.36-.05 8.89-10.54 11.55-18.9 10.8zm-9-33.37a11.15 11.15 0 01-.23-6.84c.08-4.49 4.56-4.56 4.56-4.56a67 67 0 0116 3.19l1.37-5.17c-1-.3-8.81-3.11-11.32-3.49-4-.61-11.86 2.2-13.08 4.63 0 0-3.19 3.8-3.26 6.69 0 18.47 17.71 14.29 26.29 25.39 0 0 .31 3.87-1.14 5.7-1.14 1.21-5.16 1.9-5.47 1.9a30.18 30.18 0 01-19.46-7.6l-3.64 4.18c6.46 6.08 15.27 8.2 23.63 8.2 3.35 0 9-2.66 11.86-7.06-.01-16.95-17.26-14.62-26.08-25.16z"/></svg><svg id="comment" data-name="Layer 1" width="66" height="66" viewBox="-1 -1 66 66" x="206.4" xmlns="http://www.w3.org/2000/svg"><defs><style>.bcls-1{fill:#2f5572}</style></defs><path class="bcls-1" d="M.72.08A.67.67 0 000 .8v46.48a.72.72 0 00.72.72H48l16 16V.72a.67.67 0 00-.72-.72H.8z"/></svg><svg id="facebook" data-name="Layer 1" width="23.23" height="44.01" viewBox="-1 -1 23.23 44.01" x="144.4" y="66" xmlns="http://www.w3.org/2000/svg"><defs><style>.ccls-1{fill:#fff}</style></defs><path class="ccls-1" d="M21.23.31V7H17.4a3.55 3.55 0 00-2.85.91 4.26 4.26 0 00-.74 2.72v4.77H21l-1 7.47h-6.19V42H6.27V22.85H0v-7.47h6.27V9.85q0-4.69 2.55-7.28A9 9 0 0115.63 0a39.57 39.57 0 015.6.31z"/></svg><svg id="fire" data-name="Layer 1" width="58" height="66" viewBox="-1 -1 58 66" y="111.5" xmlns="http://www.w3.org/2000/svg"><defs><style>.dcls-1{fill:#d4953d}</style></defs><path class="dcls-1" d="M16 0C24 16 0 24 0 40s16 24 16 24C8.16 48.16 32 40 32 24S16 0 16 0zm24 24c8 16-16 24-16 40h24c3.2 0 8-4 8-16 0-16-16-24-16-24z"/></svg><svg id="globe" data-name="Layer 1" width="66" height="66" viewBox="-1 -1 66 66" x="58" y="111.5" xmlns="http://www.w3.org/2000/svg"><defs><style>.ecls-1{fill:#d4953f}</style></defs><path class="ecls-1" d="M32 0a32 32 0 1032 32A32 32 0 0032 0zm0 8a23.75 23.75 0 017.52 1.52c-1.68 1.6-3.6 3-3.28 4.48s5.52 1 5.52 4c0 2.16-3.36 2.8-1 5.28 2.8 2.8-5.12 7.84-5.28 11.52-.24 6.64 6.72 7.76 12.24 7.76 3.36 0 4.24 1.6 4 3.52a24.07 24.07 0 01-19.76 10 22.94 22.94 0 01-8.48-1.76c1.76-3.52-2.24-10.48-6-12.72-1.84-1.84-5.76-1.12-8-2a23.49 23.49 0 01-1.52-6.72 1.42 1.42 0 011.28-.72c1.52 0 3.6 3 4.72 2.72 1.4-.32-5.96-10.48-2.52-12.48 1.6-1 4.8 3.12 3.76-1.28-1-4.08 2.88-2.24 5.28-3.28 2.08-.88 3.6-3.28 1-4.72a8.55 8.55 0 01-1.76-1.52A23.75 23.75 0 0132 8.08V8zm18.48 8.72A26.46 26.46 0 0154 22.48v.24a11.78 11.78 0 01-1.76 1.76C50 26.72 49.68 22.8 48.72 22c-1-1-4.8.16-5.28-1-.56-1.48 4-3.4 7.04-4.28z"/></svg><svg id="instagram" data-name="Layer 1" viewBox="-1 -1 44 42.93" width="44" height="42.93" y="177.5" xmlns="http://www.w3.org/2000/svg"><defs><style>.fcls-1{fill:#fff}</style></defs><path class="fcls-1" d="M27.18 41.47a11.07 11.07 0 01-.68-2.13 21.22 21.22 0 010-3.19 7.87 7.87 0 00-3.62-7.28c3.59-.66 6.91-1.43 9-4.66l7.86.48c-1-1.23-2.33-.9-3.51-1.14s-2.48-.23-3.72-.54c2.46-1.15 5.12-.15 7.9-.8-1.31-1-2.61-.6-3.79-.7s-2.4 0-3.29 0c-.61-2-1.21-3.65-1.63-5.38a5.78 5.78 0 01.12-2.22c.22-1.44.4-2.86-.6-4.12-2-.29-3.54.81-5.13 1.74a13.81 13.81 0 00-10.06 0c-1.59-.88-3.1-2-5.14-1.79-1.5 1.85-.52 3.88-.39 5.14l-1.79 6.65c-2.1.19-4.44-.22-6.7.57 2.38 1 5.05-.29 7.9 1-2.87.48-5.35.22-7.61 1.1v.5l7.7-.49c2 3.23 5.36 4 8.84 4.6a5.86 5.86 0 01-5.54 2.8A4.74 4.74 0 019.7 30a5.15 5.15 0 00-3-2.08c.8 1.56 1.57 3 2.25 4.41a3.25 3.25 0 003.07 2h3.13c.71 3.19.47 5.66-.63 7C6.05 39.56-.67 29.65.05 19.89A21.2 21.2 0 0119.75.56a21.19 21.19 0 0122 18 21.13 21.13 0 01-14.57 22.91z" transform="translate(0 -.53)"/></svg><svg id="mail" data-name="Layer 1" width="66" height="50" viewBox="-1 -1 66 50" y="61.5" xmlns="http://www.w3.org/2000/svg"><defs><style>.gcls-1{fill:#2f5572}</style></defs><path class="gcls-1" d="M0 0v8l32 16L64 8V0H0zm0 16v32h64V16L32 32z"/></svg><svg id="rain" data-name="Layer 1" width="66" height="66" viewBox="-1 -1 66 66" x="206.4" y="66" xmlns="http://www.w3.org/2000/svg"><defs><style>.hcls-1{fill:#d4953f}</style></defs><path class="hcls-1" d="M36 0a20.42 20.42 0 00-20 16A16 16 0 000 32a15.4 15.4 0 004.27 10.72A11.88 11.88 0 0112 40a10.51 10.51 0 014.47 1A12 12 0 0128 32a12.06 12.06 0 0111.51 9A11.84 11.84 0 0144 40a11.94 11.94 0 0111 7.52A12.07 12.07 0 0064 36c0-5.2-3.36-10.32-8-12v-4A20 20 0 0036 0zm-9.27 40A4 4 0 0024 44v16a4 4 0 108 0V44a4 4 0 00-4.71-4h-.56zm-16 8A4 4 0 008 52v8a4 4 0 108 0v-8a4 4 0 00-4.71-4h-.54zm32 0A4 4 0 0040 52v8a4 4 0 108 0v-8a4 4 0 00-4.71-4h-.58z" transform="translate(-.04)"/></svg><svg id="star" data-name="Layer 1" width="66" height="66" viewBox="-1 -1 66 66" x="124" y="111.5" xmlns="http://www.w3.org/2000/svg"><defs><style>.icls-1{fill:#d4953f}</style></defs><path class="icls-1" d="M32 0l-8 24H0l20 16-8 24 20-16 20 16-8-24 20-16H40z"/></svg><svg id="twitter" data-name="Layer 1" width="53.78" height="44.06" viewBox="-1 -1 53.78 44.06" x="206.4" y="132" xmlns="http://www.w3.org/2000/svg"><defs><style>.jcls-1{fill:#fff}</style></defs><path class="jcls-1" d="M51.78 5a22.23 22.23 0 01-5.32 5.52v1.38a30.15 30.15 0 01-1.25 8.53 30.81 30.81 0 01-3.76 8.13 32.1 32.1 0 01-6.06 6.92 27 27 0 01-8.48 4.8 31 31 0 01-10.62 1.8A29.47 29.47 0 010 37.29a22.71 22.71 0 002.56.13 20.78 20.78 0 0013.17-4.53 10.63 10.63 0 01-9.92-7.36 13.45 13.45 0 002 .16 11 11 0 002.79-.36 10.44 10.44 0 01-6.09-3.67 10.25 10.25 0 01-2.41-6.75v-.13a10.52 10.52 0 004.8 1.34 10.6 10.6 0 01-3.45-3.78 10.34 10.34 0 01-1.28-5.07 10.4 10.4 0 011.45-5.33 30.08 30.08 0 009.71 7.83A29.57 29.57 0 0025.53 13a11.79 11.79 0 01-.26-2.43 10.23 10.23 0 013-7.48 10.64 10.64 0 0115 0l.21.22A20.81 20.81 0 0050.33.8a10.3 10.3 0 01-4.67 5.85A21.14 21.14 0 0051.78 5z"/></svg><svg id="wifi" data-name="Layer 1" width="62" height="66" viewBox="-1 -1 62 66" x="144.4" xmlns="http://www.w3.org/2000/svg"><defs><style>.kcls-1{fill:#d4953e}</style></defs><path class="kcls-1" d="M29.88 0A55.39 55.39 0 000 8.72l4.22 6.48a47.32 47.32 0 0125.66-7.28 47.31 47.31 0 0125.9 7.28L60 8.72A55.53 55.53 0 0029.88 0zm0 24a31.08 31.08 0 00-17 5l4.22 6.72A23.09 23.09 0 0129.8 32a24.17 24.17 0 0113 3.76L47 29a32.37 32.37 0 00-17.2-5h.07zm0 24a8 8 0 108 8 8 8 0 00-8-8z"/></svg><svg id="youtube" data-name="Layer 1" viewBox="-1 -1 45.78 45.78" width="45.78" height="45.78" x="66" y="61.5" xmlns="http://www.w3.org/2000/svg"><defs><style>.lcls-1{fill:#fff}</style></defs><path class="lcls-1" d="M22.11 0h15.5c4.48 0 6.26 1.74 6.27 6.12 0 10.44-.11 20.89.08 31.33a5.8 5.8 0 01-6.27 6.27Q22 43.43 6.36 43.7a5.73 5.73 0 01-6.18-6Q.42 21.85.18 6a5.67 5.67 0 016.1-6.07C11.55.15 16.83 0 22.11 0zm17.52 4.05h-32c-.87 0-1.74.11-2.61.19-.09 0-.17.12-.25.19s-.16.15-.31.28c0 .6-.13 1.25-.13 1.9v31.62a2.15 2.15 0 00.16.64.87.87 0 00.19.25c.07.09.15.16.28.31.6 0 1.25.13 1.9.13h31.62a2.08 2.08 0 00.64-.16.87.87 0 00.25-.19 2.73 2.73 0 00.25-.23z" transform="translate(-.18 .07)"/><path class="lcls-1" d="M23.55 35.53h-5.79V16.92h5.4l.41 1.65a2.31 2.31 0 00.47-.11c1.23-.65 2.39-1.69 3.69-1.91 4.88-.83 7.77 1.58 8.18 6.55.08.88.06 1.76.06 2.64v9.61c-1.93.67-3.74.31-5.9.27C30 34.25 30 33 30 31.71c0-2.42.05-4.84-.11-7.24a2.54 2.54 0 00-2.69-2.71c-1.71-.08-2.74.53-3.16 2.21a17.46 17.46 0 00-.46 3.89c-.08 2.5-.03 5-.03 7.67zM8.16 16.88h5.48c.63 2.51.79 13.43.29 18.61H8.19c-.06-6.08-.02-12.16-.03-18.61zM14.55 10.88a3.59 3.59 0 01-3.76 3.3 3.46 3.46 0 01-3.19-3.52 3.61 3.61 0 013.74-3.32 3.66 3.66 0 013.21 3.54z" transform="translate(-.18 .07)"/></svg></svg>