<svg id="Layer_1" data-name="Layer 1" xmlns="http://www.w3.org/2000/svg" viewBox="0 0 142.4 59.5"><defs><style>.cls-1{fill:none;stroke:#0e051d;stroke-miterlimit:10;}</style></defs><title>clear-view-escapes</title><path class="cls-1" d="M37.42,57.06l-5.93-3-4.86-5.85-6.08-4.71L20,49.16l-.46,9.05-5.47.22-6.31-5.7L8,41.79l.91-9,.23-9.42-.23-7.45L9.15,3l8-1,3.35,5.85,1.29,11.86,4.41-5.78,5.47-8.58,4.86-.61,2.21,3.11,2.66,3.8-2.66,5.25-4.71,7.83-5.93,8.05L34.46,39l5.32,7.29,2.51,7.83Zm1.14-9.88-4.33-5.85-4.71-5.09-4.11-3.72,4.79-5L35.37,20l4.26-7.44-3.81-1.14-4.1,6.68-5.47,7.22-5.17,3.35-.91-9L19,9l-3.88.76L15,20.35l-.15,12-.38,11.71-.31,12.61h4.11l.45-10.41,1-11.17C25,36.16,37.88,55,37.88,55.24a12.94,12.94,0,0,0,3-1.67Z"/><path class="cls-1" d="M79.22,59.12,71,53.64,69.42,39.81,66,39.58A134.58,134.58,0,0,1,57.94,57c-.31.68-.53,1.67-.76,2.35L50,57l-5.47-6.92a176.53,176.53,0,0,0,8.67-22c1-3.19,1.59-6.69,2.73-9.88,1.75-4.64,6.31-13.22,8.9-17.78l6.38,3.8c1.29,2.5,3,5.32,4.1,7.9L77,18c1,3.57,2,7.14,3.11,10.71C83,38.6,85.53,46.42,87,56.61Zm-1-31.32c-1.06-3.49-2-7.52-3.34-10.87-1.22-3-2.51-6.61-4-9.5l-1.83,3.35-2.43,5.55L64.25,22.1c-1.9,4.49-2.81,9.35-4.41,13.91-2.28,6.61-4.94,13.23-7.53,19.76l4,1.83c2.43-5.1,7.14-13.53,7.9-19.16L69,37.91c1.75-.76,4-.15,5.85-.07.84,3.42,1.29,4.33,2.13,7.44.38,1.45.3,3.12.68,4.56.54,2.21,1.37,4.41,2.06,6.54l5.24-1.52C83.63,45.74,80.89,36.62,78.23,27.8Zm-4.48,5.32-4.41.76-2.28-1.14a48.64,48.64,0,0,1,1.52-10.49,10.6,10.6,0,0,1,5,1.22c-.08,1.22-.31,2.51-.31,3.65,0,.15.84,3.49.91,3.8Z"/><path class="cls-1" d="M116.46,57.83C108,57.06,96.55,50,96.55,50s-4.94-6.39-6.84-9.35l6.68-4.94c6.16,2,12.54,6.46,18.32,9.19a16.41,16.41,0,0,0,5.4-.3l3-3C114.25,38.44,95,29.63,95,19.21c0-7.9,12.39-19,20.07-19,.6,0,9,2.28,10.1,2.51l5.93,7.07-2.13,8.59a53.54,53.54,0,0,0-16.56-3.8c-2.13,1.14-3.81,2.43-3.81,5.09,0,12.62,26.76,10.79,26.76,27.36C135.31,55.92,124.82,58.58,116.46,57.83Zm-9-33.37a11.15,11.15,0,0,1-.23-6.84c.08-4.49,4.56-4.56,4.56-4.56a67,67,0,0,1,16,3.19l1.37-5.17c-1-.3-8.81-3.11-11.32-3.49-4-.61-11.86,2.2-13.08,4.63,0,0-3.19,3.8-3.26,6.69,0,18.47,17.71,14.29,26.29,25.39,0,0,.31,3.87-1.14,5.7-1.14,1.21-5.16,1.9-5.47,1.9a30.18,30.18,0,0,1-19.46-7.6l-3.64,4.18c6.46,6.08,15.27,8.2,23.63,8.2,3.35,0,9-2.66,11.86-7.06C133.56,32.67,116.31,35,107.49,24.46Z"/></svg>