<svg id="Layer_1" data-name="Layer 1" xmlns="http://www.w3.org/2000/svg" viewBox="0 0 43.22 43.39"><defs><style>.cls-1{fill:#fff;}</style></defs><title>facebook</title><path class="cls-1" d="M0,42.94V16.78L6.79,10.7V4.18h7.28c6-5.07,8.14-6,15-.09h7.27v6.45l6.93,6.25v26C41.39,43.47,3,43.63,0,42.94ZM34.14,23.23V6.31H8.93V23.09l5.22,4.08c8.67-5.51,8-4.39,14.89,0Zm7.4,17.83A10.18,10.18,0,0,0,40,39q-7.68-6.09-15.45-12.06c-2.11-1.62-3.74-1.68-5.83-.09-5.33,4.06-10.59,8.2-15.84,12.36a7.29,7.29,0,0,0-1.11,1.85ZM2.18,20.69V36.88l10.29-8.11ZM30.71,28.8l10.34,8.06V20.7Zm6-14.8v7.28l4.26-3.54ZM2.22,17.8l4.4,3.42V14ZM24.79,3.87c-2.51-2.2-4.23-2.15-6.15,0Z"/><path class="cls-1" d="M11.76,13,12,11.2c2.71-.65,17.6-.52,19.44.17L31.22,13Z"/><path class="cls-1" d="M11.8,17.65,12,15.83a92.25,92.25,0,0,1,12.55.11l-.17,1.82A92.4,92.4,0,0,1,11.8,17.65Z"/></svg>