<svg id="Layer_1" data-name="Layer 1" xmlns="http://www.w3.org/2000/svg" xmlns:xlink="http://www.w3.org/1999/xlink" viewBox="0 0 64 64"><defs><style>.cls-1{fill:url(#linear-gradient);}.cls-2{fill:#fff;}</style><linearGradient id="linear-gradient" x1="32" y1="598" x2="32" y2="534" gradientTransform="translate(0 -534)" gradientUnits="userSpaceOnUse"><stop offset="0.14" stop-color="#d4953f"/><stop offset="0.38" stop-color="#d59742" stop-opacity="0.83"/><stop offset="0.57" stop-color="#d69a48" stop-opacity="0.6"/><stop offset="0.65" stop-color="#d69a48" stop-opacity="0.46"/><stop offset="1" stop-color="#fff" stop-opacity="0"/></linearGradient></defs><title>rain 11</title><circle class="cls-1" cx="32" cy="32" r="32"/><path class="cls-2" d="M27.67,14.39c-1.89.92-3-.62-4.49-1.36,1-.5,1.83-.95,2.7-1.37A30.26,30.26,0,0,1,32.9,9c6.61-1.45,12.81,2.88,14.76,8.51a23.16,23.16,0,0,1,1,10c-.18,2-.44,4-.67,6,1,.4,2.07.78,3.08,1.21a14.21,14.21,0,0,1,2,1c1.34.85,1.54,1.79.72,3.14-1.38,2.27-3.17,4-5.93,4.42-1.16.16-1.49.74-1.66,1.82-.33,2.23-.8,4.43-1.31,6.63a3.69,3.69,0,0,1-3.63,3,5.14,5.14,0,0,1-1.38-.33c-1.45-.46-2.89-.92-4.33-1.42a.75.75,0,0,0-.91.24c-1,1.05-2,2.05-2.92,3.14a3,3,0,0,1-4.81-.38c-.58-1-1.08-2.12-1.67-3.15a22.16,22.16,0,0,0-1.52-2.33,2.4,2.4,0,0,0-2-.85c-2.14,0-4.28-.15-6.42-.23a2.06,2.06,0,0,1-.26,0c-2.12-.46-2.76-1.59-2-3.6.59-1.49,1.28-2.94,1.92-4.4.45-1,.37-1.41-.52-2.06a19,19,0,0,0-1.8-1.16A8.43,8.43,0,0,1,10,35.46c-.77-1.15-.59-2,.67-2.51,2-.82,4-1.5,6-2.25,1.44-.54,2.88-1.09,4.31-1.65a4.66,4.66,0,0,0,2.72-2.87c1.14-3,2.4-5.94,3.58-8.92A3.74,3.74,0,0,0,27.67,14.39ZM10.79,34.33a8,8,0,0,0,2.8,2.79,14.19,14.19,0,0,1,1.79,1.18,2.56,2.56,0,0,1,.88,3.49c-.09.2-.2.38-.28.58-.62,1.46-1.23,2.91-1.83,4.38a.72.72,0,0,0,.5,1.07,6.32,6.32,0,0,0,1.51.34c1.89.08,3.77.12,5.66.13a3.34,3.34,0,0,1,2.54,1,16.53,16.53,0,0,1,1.79,2.45c.67,1.12,1.16,2.33,1.83,3.44a1.57,1.57,0,0,0,2.74.27c1-1.05,2-2.08,3-3.18a1.87,1.87,0,0,1,2.22-.56q2.25.75,4.5,1.47a2.27,2.27,0,0,0,3.17-1.73c.5-2.13,1-4.27,1.31-6.43.82-5.46,1.56-10.94,2.31-16.41A22.91,22.91,0,0,0,46.73,19a11.59,11.59,0,0,0-9.08-8.71c-4.29-.94-8,1-11.64,2.92a1.83,1.83,0,0,0,1,.05c1.18-.3,2,.16,2.07,1.36a3.94,3.94,0,0,1-.14,1.78C27.46,20.17,26,24,24.42,27.72c-.65,1.57-2.14,2.28-3.64,2.84-2.89,1.07-5.78,2.1-8.67,3.16C11.68,33.88,11.27,34.11,10.79,34.33Zm35.86,8.26a2.11,2.11,0,0,0,.3,0,8.71,8.71,0,0,0,5.76-4.27c.48-.75.4-1.2-.43-1.65-1.44-.77-2.93-1.45-4.46-2.19Z"/><path class="cls-2" d="M35,33.16c-.23-2.22-.45-4.41-.68-6.6a7.6,7.6,0,0,0-.11-1.17c-.1-.37-.34-.7-.45-1.07s-.29-.85-.15-1.13.65-.49,1.1-.79a3.68,3.68,0,0,1,.75-3.32,4.18,4.18,0,0,1,1.8-1.19,3.26,3.26,0,0,1,3.85,2,3.93,3.93,0,0,1-1.25,4.77c-1.41,1-3,.7-4.46-.77-.71.52-.61,1.23-.52,2,.27,2.28.48,4.57.69,6.86a.56.56,0,0,0,.53.59c1.43.32,2,1.06,1.66,2.49-.55,2.53-1.46,4.87-4,6.19-1.41.75-2.81,1.54-4.23,2.29-.16.09-.41,0-.62,0l-.05-.22,1-.62c1.12-.71,2.24-1.4,3.34-2.14a6.16,6.16,0,0,0,2.61-3.3c.22-.68.54-1.32.74-2,.25-.86,0-1.22-.83-1.42a7.24,7.24,0,0,0-1.54-.22c-2.12-.06-4.25-.07-6.37-.11a1.77,1.77,0,0,1-.55-.24c.17-.11.33-.31.51-.32,2.29-.2,4.58-.37,6.87-.54Zm5.53-11.59a2.7,2.7,0,0,0-2.47-2.82,2.62,2.62,0,0,0-2.52,2.75A2.64,2.64,0,0,0,38,24.24,2.57,2.57,0,0,0,40.52,21.57Zm-5.42,2.1c-.32-.27-.5-.53-.71-.55s-.49.33-.46.46a.86.86,0,0,0,.48.56C34.53,24.18,34.78,23.9,35.1,23.67Z"/><path class="cls-2" d="M37.19,21.36l.12-.26a1.58,1.58,0,0,1,.14.36,1.41,1.41,0,0,0,.67,1.25c.08,0,.12.2.18.3s-.19.13-.28.1C37.57,23,37.19,22.21,37.19,21.36Z"/></svg>