<svg id="Layer_1" data-name="Layer 1" xmlns="http://www.w3.org/2000/svg" xmlns:xlink="http://www.w3.org/1999/xlink" viewBox="0 0 64 64"><defs><style>.cls-1{fill:url(#linear-gradient);}.cls-2{fill:#fff;}</style><linearGradient id="linear-gradient" x1="32" y1="64" x2="32" gradientUnits="userSpaceOnUse"><stop offset="0.14" stop-color="#d4953f"/><stop offset="0.38" stop-color="#d59742" stop-opacity="0.83"/><stop offset="0.57" stop-color="#d69a48" stop-opacity="0.6"/><stop offset="0.65" stop-color="#d69a48" stop-opacity="0.46"/><stop offset="1" stop-color="#fff" stop-opacity="0"/></linearGradient></defs><title>rain</title><circle class="cls-1" cx="32" cy="32" r="32"/><path class="cls-2" d="M27.13,25H24.08v-3a.61.61,0,0,0-1.22,0v3H19.81a.61.61,0,0,0,0,1.22h3.05v3a.61.61,0,1,0,1.22,0v-3h3.05a.61.61,0,0,0,0-1.22Z" transform="translate(0 0)"/><path class="cls-2" d="M44.19,25H36.87a.61.61,0,0,0,0,1.22h7.32a.61.61,0,0,0,0-1.22Z" transform="translate(0 0)"/><path class="cls-2" d="M32.61,16.44H14.33V51.78H49.67V16.44ZM15.55,17.66H31.39V33.5H15.55Zm0,32.9V34.72H31.39V50.56Zm32.9,0H32.61V34.72H48.45ZM32.61,33.5V17.66H48.45V33.5Z" transform="translate(0 0)"/><path class="cls-2" d="M36.87,45.08h7.32a.61.61,0,0,0,.6-.61.6.6,0,0,0-.6-.61H36.87a.61.61,0,0,0-.61.61A.62.62,0,0,0,36.87,45.08Z" transform="translate(0 0)"/><path class="cls-2" d="M36.87,41.42h7.32a.61.61,0,0,0,0-1.22H36.87a.61.61,0,0,0,0,1.22Z" transform="translate(0 0)"/><path class="cls-2" d="M27,39.16a.6.6,0,0,0-.86,0l-2.62,2.62-2.62-2.62A.61.61,0,0,0,20,40l2.62,2.62L20,45.25a.62.62,0,0,0,0,.87.65.65,0,0,0,.43.17.61.61,0,0,0,.43-.17l2.62-2.62,2.62,2.62a.61.61,0,0,0,.43.17.65.65,0,0,0,.43-.17.62.62,0,0,0,0-.87l-2.62-2.61L27,40A.6.6,0,0,0,27,39.16Z" transform="translate(0 0)"/></svg>