<svg id="Layer_1" data-name="Layer 1" xmlns="http://www.w3.org/2000/svg" viewBox="0 0 42 40.93"><defs><style>.cls-1{fill:#fff;}</style></defs><title>icons8-github-100</title><path class="cls-1" d="M27.18,41.47a11.07,11.07,0,0,1-.68-2.13,21.22,21.22,0,0,1,0-3.19,7.87,7.87,0,0,0-3.62-7.28c3.59-.66,6.91-1.43,9-4.66l7.86.48c-1-1.23-2.33-.9-3.51-1.14s-2.48-.23-3.72-.54c2.46-1.15,5.12-.15,7.9-.8-1.31-1-2.61-.6-3.79-.7s-2.4,0-3.29,0c-.61-2-1.21-3.65-1.63-5.38a5.78,5.78,0,0,1,.12-2.22c.22-1.44.4-2.86-.6-4.12-2-.29-3.54.81-5.13,1.74a13.81,13.81,0,0,0-10.06,0c-1.59-.88-3.1-2-5.14-1.79-1.5,1.85-.52,3.88-.39,5.14L8.71,21.53c-2.1.19-4.44-.22-6.7.57,2.38,1,5.05-.29,7.9,1-2.87.48-5.35.22-7.61,1.1l0,.5L10,24.21c2,3.23,5.36,4,8.84,4.6a5.86,5.86,0,0,1-5.54,2.8A4.74,4.74,0,0,1,9.7,30a5.15,5.15,0,0,0-3-2.08c.8,1.56,1.57,3,2.25,4.41a3.25,3.25,0,0,0,3.07,2c1,0,2.11,0,3.13,0,.71,3.19.47,5.66-.63,7C6.05,39.56-.67,29.65.05,19.89A21.2,21.2,0,0,1,19.75.56a21.19,21.19,0,0,1,22,18A21.13,21.13,0,0,1,27.18,41.47Z" transform="translate(0 -0.53)"/></svg>