<svg id="Layer_1" data-name="Layer 1" xmlns="http://www.w3.org/2000/svg" viewBox="0 0 63.94 47.95"><defs><style>.cls-1{fill:#d59541;}</style></defs><title>mail</title><path class="cls-1" d="M64,40a7.88,7.88,0,0,1-1,3.85L42.79,21.22l20-17.47A8,8,0,0,1,64,8V40ZM32,25.32,59.82,1A7.85,7.85,0,0,0,56,0h-48a7.78,7.78,0,0,0-3.8,1Zm7.75-1.47-6.43,5.63A2,2,0,0,1,32,30a2,2,0,0,1-1.31-.49l-6.44-5.63L3.84,46.73A7.94,7.94,0,0,0,8.05,48H56a7.94,7.94,0,0,0,4.21-1.22ZM1.31,3.75A7.9,7.9,0,0,0,.06,8V40a7.88,7.88,0,0,0,1,3.85l20.18-22.6Z" transform="translate(-0.06)"/></svg>