<svg id="Layer_1" data-name="Layer 1" xmlns="http://www.w3.org/2000/svg" xmlns:xlink="http://www.w3.org/1999/xlink" viewBox="0 0 64 64"><defs><style>.cls-1{fill:url(#linear-gradient);}.cls-2{fill:#fff;fill-rule:evenodd;}</style><linearGradient id="linear-gradient" x1="32" y1="2" x2="32" y2="66" gradientTransform="matrix(1, 0, 0, -1, 0, 66)" gradientUnits="userSpaceOnUse"><stop offset="0.14" stop-color="#d4953f"/><stop offset="0.38" stop-color="#d59742" stop-opacity="0.83"/><stop offset="0.57" stop-color="#d69a48" stop-opacity="0.6"/><stop offset="0.65" stop-color="#d69a48" stop-opacity="0.46"/><stop offset="1" stop-color="#fff" stop-opacity="0"/></linearGradient></defs><title>wifi</title><circle class="cls-1" cx="32" cy="32" r="32"/><path class="cls-2" d="M36.45,48.29C44.24,46.75,49.8,41,49.8,32.55v-11H35V36.42H40.9A9.81,9.81,0,0,1,35,45.1Zm-20.77,0C23.47,46.75,29,41,29,32.55v-11H14.2V36.42h5.93A9.81,9.81,0,0,1,14.2,45.1Zm.84-1.71-.36-.77a11.4,11.4,0,0,0,5.45-9.39V34.94H15.68V23.07H27.52v9.48c0,7-4.18,12.24-11,14m20.77,0-.36-.77a11.42,11.42,0,0,0,5.46-9.39V34.94H36.48V23.07H48.32v9.48c0,7-4.19,12.24-11,14" transform="translate(0 0)"/></svg>