<svg id="Layer_1" data-name="Layer 1" xmlns="http://www.w3.org/2000/svg" xmlns:xlink="http://www.w3.org/1999/xlink" viewBox="0 0 64 64"><defs><style>.cls-1{fill:url(#linear-gradient);}.cls-2{fill:none;stroke:#fcfcfc;stroke-miterlimit:10;}</style><linearGradient id="linear-gradient" x1="32" y1="64" x2="32" gradientUnits="userSpaceOnUse"><stop offset="0.14" stop-color="#d4953f"/><stop offset="0.38" stop-color="#d59742" stop-opacity="0.83"/><stop offset="0.57" stop-color="#d69a48" stop-opacity="0.6"/><stop offset="0.65" stop-color="#d69a48" stop-opacity="0.46"/><stop offset="1" stop-color="#fff" stop-opacity="0"/></linearGradient></defs><title>rain</title><circle class="cls-1" cx="32" cy="32" r="32"/><path class="cls-2" d="M41.59,54.06,37.37,52,33.92,47.8,29.6,44.45l-.38,4-.32,6.43L25,55l-4.48-4,.16-7.78.65-6.43.16-6.69-.16-5.29.16-9.18,5.72-.71,2.38,4.16.92,8.43,3.13-4.11,3.89-6.1L41,16.86l1.57,2.21,1.89,2.7L42.56,25.5l-3.35,5.56L35,36.78l4.48,4.43,3.78,5.19L45,52Zm.81-7-3.08-4.15L36,39.27l-2.92-2.65,3.41-3.56,3.67-5.35,3-5.29-2.7-.81-2.91,4.75-3.89,5.13L30,33.87l-.65-6.37-.81-7.62-2.76.54L25.66,28l-.11,8.53-.27,8.32-.22,9H28l.32-7.39.7-7.94c3.73.75,12.91,14.15,12.91,14.31A9.25,9.25,0,0,0,44,51.58Z" transform="translate(0 0)"/></svg>