<svg id="Layer_1" data-name="Layer 1" xmlns="http://www.w3.org/2000/svg" viewBox="0 0 64 64"><defs><style>.cls-1{fill:#d4953f;}.cls-2{fill:#f0bc5e;}.cls-3{fill:#fff;}</style></defs><title>star</title><path class="cls-1" d="M55.74,54.71V25.81H50.58V49.55a1,1,0,0,1-1,1H8.26a1,1,0,0,1-1-1V20.65a1,1,0,0,1,1-1h9.29A6.17,6.17,0,0,1,20,14.67l-.6-.18-12.19,0a5.17,5.17,0,0,0-5.17,5.16v35.1Z"/><path class="cls-2" d="M14.45,37.16h8.26v5.16H14.45Z"/><path class="cls-2" d="M28.9,28.9H43.35v5.16H28.9Z"/><path class="cls-3" d="M8.26,57.81h2.06v2.06H8.26Z"/><path class="cls-3" d="M12.39,57.81h2.06v2.06H12.39Z"/><path class="cls-3" d="M0,58.84A5.17,5.17,0,0,0,5.16,64H52.65a5.17,5.17,0,0,0,5.16-5.16V53.68H0Zm35.84-3.1-.52,2.07H22.48L22,55.74Zm-33.78,0H19.84l1,4.13H36.94l1-4.13H55.74v3.1a3.1,3.1,0,0,1-3.09,3.1H5.16a3.1,3.1,0,0,1-3.1-3.1Z"/><path class="cls-3" d="M57.76,12.45a9.31,9.31,0,0,0-9.24-8.32,9.18,9.18,0,0,0-3.61.74,12.37,12.37,0,0,0-22.2,7.52v.08a7.22,7.22,0,0,0-6.11,6.11H8.26a2.07,2.07,0,0,0-2.07,2.07v28.9a2.07,2.07,0,0,0,2.07,2.06H49.55a2.06,2.06,0,0,0,2.06-2.06V26.84h5.16a7.23,7.23,0,0,0,1-14.39Zm-8.21,37.1H8.26V20.65H16.6a7.23,7.23,0,0,0,7.14,6.19h1V33H10.32V47.48H33V39.23H47.48V26.84h2.07ZM31,39.23v6.19H12.39V35.1H24.77v4.13Zm-4.13-2.07V26.84H45.42V37.16ZM56.77,24.77h-33a5.15,5.15,0,0,1-.82-10.23,12.36,12.36,0,0,0,1.15,3.51l1.84-.95A10.31,10.31,0,0,1,43.1,5.89a9.14,9.14,0,0,0-1.89,1.79L42.83,9a7.22,7.22,0,0,1,12.91,4.46v1h1a5.16,5.16,0,1,1,0,10.32Z"/><path class="cls-3" d="M37.24,22.38,41.37,10l2,.65L39.19,23Z"/><path class="cls-3" d="M43.73,12.15,49,16.52l-5.24,4.36,1.32,1.59,7.14-5.95-7.14-6Z"/><path class="cls-3" d="M35.47,10.56l-7.15,6,7.15,5.95,1.32-1.59-5.24-4.36,5.24-4.37Z"/><path class="cls-3" d="M28.9,28.9H43.35V31H28.9Z"/><path class="cls-3" d="M28.9,33H43.35V35.1H28.9Z"/><path class="cls-3" d="M14.45,37.16h8.26v2.07H14.45Z"/><path class="cls-3" d="M14.45,41.29H28.9v2.06H14.45Z"/><path class="cls-3" d="M10.32,28.9h2.07V31H10.32Z"/><path class="cls-3" d="M12.39,24.77h2.06V22.71H10.32v4.13h2.07Z"/></svg>