<svg id="Layer_1" data-name="Layer 1" xmlns="http://www.w3.org/2000/svg" viewBox="0 0 42.06 42.06"><defs><style>.cls-1{fill:#fff;}</style></defs><title>twitter</title><path class="cls-1" d="M10.36,27.44l14.15,9.43V28.45l-7.84-5.24ZM8.9,24.06l4.53-3L8.9,18ZM28.13,36.87l14.15-9.43L36,23.21l-7.83,5.24ZM26.32,25.3,32.7,21l-6.38-4.27L19.93,21Zm-9.65-6.45,7.84-5.24V5.19L10.36,14.62ZM39.2,21l4.53,3V18ZM36,18.85l6.32-4.23L28.13,5.19v8.42Zm11.39-4.23V27.44a1.72,1.72,0,0,1-.8,1.5L27.33,41.75a1.86,1.86,0,0,1-1,.31,1.84,1.84,0,0,1-1-.31L6.09,28.94a1.7,1.7,0,0,1-.8-1.5V14.62a1.7,1.7,0,0,1,.8-1.5L25.31.31a1.84,1.84,0,0,1,1-.31,1.86,1.86,0,0,1,1,.31L46.55,13.12A1.72,1.72,0,0,1,47.35,14.62Z" transform="translate(-5.29 0)"/></svg>