<svg id="Layer_1" data-name="Layer 1" xmlns="http://www.w3.org/2000/svg" viewBox="0 0 43.78 43.78"><defs><style>.cls-1{fill:#fff;}</style></defs><title>youtube</title><path class="cls-1" d="M22.11,0c5.17,0,10.33,0,15.5,0,4.48,0,6.26,1.74,6.27,6.12,0,10.44-.11,20.89.08,31.33a5.8,5.8,0,0,1-6.27,6.27Q22,43.43,6.36,43.7a5.73,5.73,0,0,1-6.18-6Q.42,21.85.18,6A5.67,5.67,0,0,1,6.28-.07C11.55.15,16.83,0,22.11,0ZM39.63,4.05h-32c-.87,0-1.74.11-2.61.19-.09,0-.17.12-.25.19s-.16.15-.31.28c0,.6-.13,1.25-.13,1.9q0,15.81,0,31.62a2.15,2.15,0,0,0,.16.64.87.87,0,0,0,.19.25c.07.09.15.16.28.31.6,0,1.25.13,1.9.13q15.81,0,31.62,0a2.08,2.08,0,0,0,.64-.16.87.87,0,0,0,.25-.19,2.73,2.73,0,0,0,.25-.23Z" transform="translate(-0.18 0.07)"/><path class="cls-1" d="M23.55,35.53H17.76V16.92h5.4l.41,1.65a2.31,2.31,0,0,0,.47-.11c1.23-.65,2.39-1.69,3.69-1.91,4.88-.83,7.77,1.58,8.18,6.55.08.88.06,1.76.06,2.64,0,3.17,0,6.34,0,9.61-1.93.67-3.74.31-5.9.27C30,34.25,30,33,30,31.71c0-2.42.05-4.84-.11-7.24a2.54,2.54,0,0,0-2.69-2.71c-1.71-.08-2.74.53-3.16,2.21a17.46,17.46,0,0,0-.46,3.89C23.5,30.36,23.55,32.86,23.55,35.53Z" transform="translate(-0.18 0.07)"/><path class="cls-1" d="M8.16,16.88h5.48c.63,2.51.79,13.43.29,18.61H8.19C8.13,29.41,8.17,23.33,8.16,16.88Z" transform="translate(-0.18 0.07)"/><path class="cls-1" d="M14.55,10.88a3.59,3.59,0,0,1-3.76,3.3A3.46,3.46,0,0,1,7.6,10.66a3.61,3.61,0,0,1,3.74-3.32A3.66,3.66,0,0,1,14.55,10.88Z" transform="translate(-0.18 0.07)"/></svg>